<?xml version="1.0" standalone="no"?>
<!DOCTYPE svg PUBLIC "-//W3C//DTD SVG 20010904//EN"
 "http://www.w3.org/TR/2001/REC-SVG-20010904/DTD/svg10.dtd">
<svg version="1.0" xmlns="http://www.w3.org/2000/svg"
 width="600.000000pt" height="600.000000pt" viewBox="0 0 600.000000 600.000000"
 preserveAspectRatio="xMidYMid meet">
<metadata>
Created by potrace 1.11, written by Peter Selinger 2001-2013
</metadata>
<g transform="translate(0.000000,600.000000) scale(0.100000,-0.100000)"
fill="#000000" stroke="none">
<path d="M4155 5839 c-4 -6 -16 -9 -26 -6 -12 3 -17 1 -12 -6 4 -6 0 -8 -10
-4 -9 3 -19 2 -22 -4 -4 -5 -11 -7 -16 -4 -5 4 -9 1 -9 -5 0 -6 -4 -8 -10 -5
-5 3 -10 3 -10 -2 0 -4 -14 -14 -30 -21 -17 -8 -27 -18 -23 -25 4 -6 0 -8 -10
-4 -15 6 -22 -3 -18 -25 0 -5 -6 -8 -14 -8 -8 0 -15 -7 -15 -15 0 -8 -5 -15
-12 -15 -6 0 -8 -3 -5 -7 4 -3 -1 -12 -11 -20 -9 -8 -10 -11 -3 -7 9 5 6 -5
-7 -23 -12 -17 -22 -38 -22 -47 0 -9 -6 -19 -14 -22 -9 -3 -12 -12 -9 -21 5
-12 3 -14 -7 -8 -9 6 -11 4 -6 -4 5 -7 0 -19 -10 -27 -11 -9 -13 -12 -6 -9 11
6 11 3 0 -14 -7 -12 -17 -21 -23 -21 -5 0 -3 -4 5 -10 12 -8 12 -10 -3 -16 -9
-3 -14 -10 -11 -15 3 -5 -2 -12 -11 -15 -13 -5 -13 -9 -3 -22 8 -10 9 -13 1
-9 -7 5 -16 -6 -23 -28 -6 -19 -16 -35 -21 -35 -5 0 -8 -3 -7 -7 1 -5 -3 -18
-10 -29 -6 -12 -8 -24 -5 -28 3 -3 2 -6 -4 -6 -6 0 -14 -11 -17 -25 -4 -14
-11 -25 -17 -25 -8 0 -7 -5 1 -16 11 -12 11 -14 1 -12 -7 2 -20 -16 -30 -40
-9 -23 -20 -40 -24 -37 -4 3 -5 2 -2 -1 2 -4 -2 -19 -11 -35 -8 -16 -11 -29
-7 -29 5 0 0 -5 -10 -11 -9 -6 -15 -14 -12 -20 4 -5 1 -9 -5 -9 -6 0 -8 -4 -5
-10 3 -5 1 -10 -6 -10 -7 0 -9 -3 -6 -7 4 -3 0 -17 -8 -30 -9 -13 -13 -23 -10
-23 3 0 -3 -9 -14 -21 -10 -11 -22 -36 -26 -55 -3 -19 -10 -34 -15 -34 -6 0
-10 -6 -10 -14 0 -8 -6 -17 -12 -19 -9 -4 -9 -6 1 -6 12 -1 11 -4 -3 -14 -9
-7 -18 -22 -19 -34 0 -12 -5 -19 -9 -17 -8 5 -9 1 -12 -36 -1 -8 -6 -14 -12
-13 -5 1 -11 -8 -11 -19 -3 -38 -23 -38 -26 0 0 11 -4 19 -8 16 -7 -4 -32 51
-32 72 0 7 -4 11 -8 9 -3 -3 -10 5 -14 18 -4 12 -8 24 -9 27 -1 3 -21 45 -44
94 -23 49 -42 93 -42 97 0 5 -4 9 -10 9 -5 0 -9 3 -9 8 1 4 0 10 -1 15 -1 4
-3 13 -4 20 -1 6 -7 11 -14 10 -11 -3 -16 10 -13 30 1 6 -7 8 -25 6 -3 0 -13
8 -22 18 -29 32 -93 43 -179 31 -7 -1 -13 -5 -13 -10 0 -5 -4 -7 -9 -4 -10 7
-86 -62 -86 -78 -1 -6 -6 -10 -13 -9 -7 2 -11 0 -10 -5 2 -4 -6 -27 -16 -52
-11 -25 -19 -48 -18 -52 1 -5 -2 -8 -8 -8 -6 0 -10 -3 -9 -7 2 -16 -14 -53
-23 -53 -5 0 -7 -4 -3 -9 3 -5 1 -12 -5 -16 -6 -4 -8 -11 -5 -16 4 -5 1 -9 -5
-9 -7 0 -9 -7 -6 -16 3 -8 2 -12 -4 -9 -6 3 -10 -2 -10 -12 0 -10 -6 -27 -14
-38 -7 -11 -16 -32 -19 -47 -8 -31 -40 -32 -46 -2 -2 10 -7 21 -11 24 -4 3
-10 14 -12 25 -1 11 -10 26 -18 33 -8 8 -9 11 -3 7 8 -4 11 -1 7 9 -3 8 -12
17 -19 20 -8 3 -12 14 -10 26 2 11 0 18 -6 15 -5 -4 -9 1 -9 9 0 9 -5 16 -11
16 -5 0 -8 4 -4 9 3 5 1 12 -5 16 -6 4 -8 11 -5 16 4 5 1 9 -5 9 -6 0 -9 4 -5
9 3 5 1 12 -5 16 -6 4 -7 11 -4 17 4 6 2 8 -4 4 -12 -7 -26 29 -17 44 4 6 1 9
-7 8 -7 -2 -12 3 -10 10 1 6 -2 12 -8 12 -5 0 -10 7 -10 15 0 9 -7 27 -16 40
-9 14 -13 25 -9 25 3 0 -1 7 -9 16 -9 8 -14 20 -11 25 4 5 2 9 -2 9 -5 0 -14
9 -21 21 -11 17 -11 20 0 13 7 -4 3 5 -10 20 -12 16 -19 32 -16 37 3 5 0 9 -6
9 -6 0 -8 5 -5 10 3 6 1 10 -5 10 -6 0 -8 5 -5 10 3 6 1 10 -4 10 -6 0 -11 7
-11 15 0 9 -7 18 -15 21 -12 5 -13 10 -4 20 8 10 8 14 0 14 -6 0 -11 7 -11 15
0 8 -4 15 -10 15 -5 0 -10 7 -10 16 0 9 -8 23 -17 31 -11 8 -12 11 -3 7 12 -6
13 -5 3 7 -6 8 -13 19 -15 24 -1 6 -6 9 -10 8 -4 -2 -5 3 -2 11 3 7 -2 16 -10
19 -9 4 -12 13 -9 28 4 15 3 20 -5 15 -8 -5 -12 0 -12 13 0 11 -4 23 -10 26
-5 3 -15 16 -22 28 -11 21 -10 21 8 7 18 -14 18 -14 2 6 -10 11 -18 25 -18 31
0 6 -7 14 -16 17 -9 4 -14 13 -10 21 3 9 0 15 -10 15 -8 0 -17 8 -21 18 -9 23
-64 73 -74 66 -5 -3 -9 2 -9 10 0 19 -16 21 -23 4 -3 -8 -6 -6 -6 4 -1 11 -6
15 -16 12 -8 -4 -15 -1 -15 7 0 7 -3 9 -7 6 -3 -4 -12 -2 -20 4 -10 9 -13 8
-13 0 0 -7 -5 -9 -12 -5 -17 11 -108 11 -108 0 0 -4 -9 -6 -20 -3 -11 3 -20 2
-20 -3 0 -4 -10 -10 -23 -14 -32 -8 -31 -7 -44 -25 -7 -9 -13 -12 -13 -8 0 5
-14 -5 -31 -22 -17 -18 -27 -36 -23 -42 4 -7 3 -9 -3 -6 -6 4 -18 -4 -27 -18
-9 -14 -14 -25 -11 -25 4 0 -1 -7 -9 -16 -9 -8 -14 -19 -11 -24 3 -5 1 -11 -3
-14 -5 -3 -8 -17 -7 -31 2 -14 -2 -25 -8 -25 -8 0 -8 -3 -2 -8 6 -4 10 -14 10
-22 0 -8 -4 -18 -10 -22 -7 -5 -6 -8 0 -8 6 0 12 -15 13 -32 2 -18 7 -34 12
-36 5 -2 7 -9 4 -16 -3 -8 2 -20 10 -29 8 -8 12 -17 9 -21 -4 -3 -1 -6 6 -6 8
0 11 -7 7 -15 -3 -8 -1 -15 4 -15 5 0 7 -7 3 -15 -3 -10 0 -15 8 -13 8 2 15
-7 17 -20 2 -13 8 -20 14 -16 6 4 8 2 5 -3 -10 -16 22 -85 35 -77 7 4 8 3 4
-4 -4 -6 5 -34 19 -61 14 -28 25 -57 25 -66 0 -8 6 -15 14 -15 9 0 13 -7 11
-20 -2 -11 0 -20 4 -20 5 0 12 -11 15 -25 4 -15 11 -23 17 -19 8 4 9 -1 4 -16
-5 -17 -4 -21 6 -15 9 6 11 3 6 -8 -3 -10 -2 -17 3 -17 6 0 10 -7 10 -15 0 -8
5 -15 11 -15 5 0 7 -5 3 -11 -3 -6 -1 -15 5 -19 7 -4 13 -16 14 -28 0 -12 3
-19 5 -17 7 6 42 -67 37 -75 -3 -5 2 -11 11 -14 9 -4 14 -13 10 -21 -3 -8 -1
-15 4 -15 6 0 10 -5 10 -12 0 -6 7 -19 16 -29 12 -13 12 -19 3 -25 -8 -5 -10
-3 -4 6 6 10 4 12 -8 7 -12 -4 -14 -2 -10 10 4 10 2 14 -4 10 -5 -3 -17 3 -26
14 -9 10 -13 19 -9 20 4 0 -3 4 -15 9 -13 5 -23 17 -23 26 0 13 -3 14 -15 4
-12 -10 -13 -8 -10 10 2 13 2 20 -1 17 -4 -3 -29 18 -57 46 -28 29 -42 41 -31
27 l19 -25 -22 19 c-13 11 -23 25 -23 33 0 8 -4 11 -10 8 -5 -3 -10 1 -10 10
0 11 -5 15 -16 11 -8 -3 -13 -2 -10 2 3 5 -4 14 -14 22 -10 8 -17 17 -14 22 3
4 0 8 -6 8 -14 0 -66 52 -62 63 1 5 -1 6 -5 4 -11 -7 -33 19 -25 29 4 4 1 4
-6 0 -7 -4 -15 -1 -18 8 -3 9 -13 16 -22 16 -8 0 -13 3 -9 6 9 10 -30 47 -42
39 -7 -3 -11 -3 -10 2 3 20 -2 34 -11 28 -5 -3 -10 1 -10 10 0 10 -5 13 -12 9
-8 -5 -9 -2 -5 10 4 10 3 15 -3 11 -12 -7 -40 18 -40 35 0 6 -4 9 -8 6 -5 -3
-15 3 -24 12 -27 30 -58 52 -73 52 -8 0 -15 5 -15 12 0 6 -3 8 -7 5 -3 -4 -16
-1 -27 6 -12 7 -32 12 -46 11 -14 -1 -31 3 -38 8 -8 7 -12 7 -12 1 0 -6 -11
-9 -25 -8 -14 2 -28 -1 -31 -6 -3 -6 -11 -5 -20 2 -11 9 -15 8 -20 -5 -3 -9
-10 -14 -14 -11 -5 3 -11 1 -15 -5 -4 -6 -11 -8 -16 -5 -5 4 -9 2 -9 -3 0 -6
-13 -15 -30 -21 -16 -5 -30 -13 -30 -16 0 -3 6 -3 13 0 6 4 4 0 -5 -8 -10 -8
-15 -17 -11 -21 4 -4 -1 -4 -11 0 -14 5 -17 4 -12 -4 4 -7 3 -12 -1 -12 -10 0
-49 -62 -45 -72 1 -5 -2 -8 -6 -8 -5 0 -9 -6 -10 -12 -3 -37 -8 -54 -17 -60
-6 -5 -6 -8 2 -8 8 0 9 -9 3 -29 -5 -20 -4 -38 6 -55 7 -15 9 -24 4 -21 -16
10 -12 -7 10 -43 12 -19 15 -30 8 -26 -7 4 -5 -2 5 -13 9 -11 14 -23 10 -26
-3 -4 -2 -7 4 -7 12 0 53 -35 56 -47 1 -4 5 -7 9 -6 5 2 7 0 7 -5 -3 -19 2
-33 11 -27 6 3 10 1 10 -5 0 -6 3 -9 8 -7 4 3 13 -1 20 -9 7 -8 10 -14 6 -14
-12 0 29 -35 50 -43 11 -4 16 -13 12 -23 -3 -8 -2 -13 3 -10 12 8 52 -34 45
-46 -4 -6 -3 -8 3 -5 6 4 21 -2 33 -13 13 -11 19 -20 14 -21 -5 0 1 -4 14 -10
15 -5 21 -13 16 -21 -4 -7 -4 -10 1 -6 4 4 30 -16 58 -45 28 -29 45 -43 37
-32 -14 19 -14 19 3 6 9 -7 17 -19 17 -26 0 -14 50 -51 63 -47 5 1 6 -2 2 -7
-3 -6 3 -19 15 -31 12 -12 20 -15 20 -7 0 8 3 7 10 -3 6 -9 5 -17 -3 -22 -8
-5 -3 -8 11 -8 13 0 20 -4 17 -10 -3 -5 0 -10 8 -10 8 0 18 -7 21 -16 3 -8 11
-12 16 -9 6 4 10 3 9 -2 -3 -17 1 -33 9 -32 4 1 14 1 22 0 13 -1 13 -2 0 -11
-8 -5 -10 -10 -4 -10 6 0 25 -13 42 -29 16 -16 33 -27 36 -24 3 4 6 -4 6 -16
0 -18 4 -22 19 -18 15 3 18 0 14 -17 -4 -17 -3 -18 6 -6 10 13 11 13 12 0 1
-8 1 -18 0 -22 0 -4 7 -4 16 -1 13 5 15 2 10 -11 -5 -14 -3 -17 8 -12 9 3 15
0 15 -9 0 -8 5 -15 11 -15 5 0 7 -5 3 -12 -4 -7 -3 -8 5 -4 12 8 41 -15 41
-33 0 -5 -5 -13 -12 -17 -7 -4 -8 -3 -4 4 4 7 2 12 -3 12 -6 0 -11 -4 -11 -8
0 -4 -12 -7 -27 -6 -16 1 -36 -3 -45 -8 -10 -5 -18 -5 -18 0 0 5 -7 9 -15 9
-8 0 -11 -5 -8 -10 4 -6 -5 -8 -21 -5 -16 3 -33 0 -42 -9 -8 -9 -14 -10 -14
-3 0 6 -5 8 -10 5 -5 -3 -10 0 -10 7 0 8 -3 9 -8 3 -9 -13 -27 -17 -77 -19
-22 -1 -45 -4 -50 -7 -6 -3 -24 -5 -42 -4 -19 1 -29 -3 -26 -9 4 -5 0 -7 -9
-3 -9 3 -21 0 -27 -6 -6 -6 -11 -7 -11 -2 0 4 -15 -8 -34 -27 -19 -20 -37 -34
-40 -31 -2 2 -7 -6 -11 -19 -4 -13 -11 -25 -16 -28 -4 -3 -10 -19 -13 -35 -2
-17 -5 -31 -6 -32 -6 -8 -3 -50 4 -61 4 -6 4 -12 0 -12 -4 0 1 -10 12 -22 13
-14 14 -19 4 -14 -8 4 -6 0 5 -9 11 -9 18 -18 16 -21 -5 -9 63 -84 77 -84 6 0
12 -5 12 -11 0 -5 5 -7 12 -3 7 4 8 3 4 -5 -4 -6 0 -14 8 -17 9 -3 13 -10 10
-15 -3 -5 2 -9 10 -9 9 0 16 -4 16 -10 0 -5 5 -10 10 -10 13 0 50 -37 50 -51
0 -5 5 -7 10 -4 6 3 10 -1 10 -9 0 -9 4 -15 9 -13 5 1 23 -13 40 -30 17 -18
36 -33 41 -33 6 0 10 -5 10 -11 0 -5 -5 -7 -10 -4 -6 3 -10 1 -10 -6 0 -10 -3
-10 -11 -2 -12 12 -42 6 -34 -7 7 -11 -29 -7 -37 5 -5 7 -8 6 -8 0 0 -10 -34
-16 -97 -18 -14 -1 -23 -8 -24 -16 0 -11 -3 -10 -9 4 -5 11 -9 15 -9 10 -1 -6
-11 -12 -23 -13 -13 -1 -36 -3 -53 -4 -16 -2 -36 -7 -44 -12 -10 -7 -12 -5 -6
5 6 11 5 11 -5 2 -7 -6 -19 -9 -28 -6 -8 4 -13 2 -10 -3 4 -5 -13 -9 -38 -8
-26 1 -44 -3 -44 -10 0 -6 -5 -4 -10 4 -5 8 -10 10 -10 4 0 -6 -12 -10 -27
-11 -16 0 -39 -3 -52 -7 -18 -6 -22 -5 -15 5 6 11 5 12 -8 2 -8 -7 -18 -10
-21 -6 -4 3 -7 2 -7 -4 0 -5 -13 -9 -30 -8 -16 1 -30 -3 -31 -9 0 -6 -4 -2 -9
9 -6 13 -9 15 -9 5 -1 -10 -13 -16 -36 -17 -19 -2 -51 -4 -70 -5 -19 -2 -35
-6 -35 -9 0 -3 -11 -5 -25 -4 -14 2 -28 -1 -31 -7 -4 -7 -9 -6 -14 1 -3 7 -14
9 -23 5 -9 -3 -15 -9 -12 -13 2 -4 -2 -8 -10 -8 -8 0 -12 4 -9 9 3 4 -6 4 -19
-1 -14 -6 -28 -7 -31 -4 -3 3 -12 0 -21 -7 -11 -9 -15 -9 -15 -1 0 8 -5 9 -19
1 -11 -5 -31 -10 -46 -10 -18 0 -24 -4 -19 -12 6 -10 4 -10 -8 0 -12 9 -18 10
-23 2 -4 -6 -13 -9 -21 -6 -8 3 -14 1 -14 -5 0 -6 -4 -8 -9 -5 -5 3 -14 -1
-21 -10 -7 -8 -19 -13 -27 -10 -8 3 -11 1 -8 -4 3 -6 1 -10 -5 -10 -6 0 -8 -5
-4 -12 5 -8 2 -9 -9 -5 -10 4 -17 1 -17 -6 0 -14 -35 -47 -44 -41 -3 2 -4 1
-2 -2 3 -3 -6 -27 -19 -52 -13 -26 -21 -50 -19 -54 3 -4 1 -8 -3 -8 -5 0 -9
-18 -8 -40 1 -22 -4 -40 -9 -40 -6 0 -4 -5 4 -10 13 -9 13 -10 0 -10 -11 0
-12 -2 -3 -8 7 -4 13 -22 15 -40 1 -18 6 -32 11 -32 4 0 5 -4 2 -10 -3 -5 -1
-10 5 -10 6 0 8 -4 5 -10 -3 -5 -1 -10 5 -10 6 0 8 -4 5 -10 -3 -5 -1 -10 4
-10 6 0 17 -15 25 -34 8 -19 24 -37 35 -41 12 -3 21 -11 21 -16 0 -6 5 -7 10
-4 6 3 10 2 10 -4 0 -8 29 -23 50 -26 3 0 11 -4 19 -9 8 -5 27 -9 42 -8 16 0
31 -4 34 -9 6 -8 16 -5 46 13 3 1 14 -4 24 -12 11 -8 16 -10 12 -3 -4 6 -3 14
3 18 5 3 10 1 10 -6 0 -7 8 -6 24 4 17 12 26 13 35 4 8 -8 11 -7 11 4 0 12 2
12 10 -1 5 -8 10 -10 10 -5 0 6 15 11 33 12 44 4 60 7 76 17 10 6 12 5 7 -2
-8 -13 6 -17 18 -5 11 12 40 12 53 1 10 -8 12 -7 8 4 -4 11 2 14 25 12 16 -1
33 2 36 7 3 5 14 4 26 -2 14 -8 18 -8 14 0 -5 7 3 10 23 7 17 -2 31 0 31 5 0
4 11 6 24 3 14 -2 27 0 30 4 3 5 23 7 45 6 23 -1 41 1 41 5 0 4 14 7 30 6 17
-1 30 3 30 9 0 6 4 5 9 -3 5 -8 11 -9 15 -3 3 6 17 9 31 7 14 -1 25 1 25 6 0
4 14 5 30 3 17 -3 30 -1 30 5 0 6 5 11 11 11 6 0 9 -7 6 -14 -4 -10 -1 -13 8
-9 8 3 13 8 11 12 -3 4 4 7 15 7 10 0 19 -1 19 -3 0 -7 -58 -31 -64 -26 -3 4
-6 1 -6 -5 0 -7 -7 -12 -15 -12 -8 0 -15 -6 -15 -12 0 -9 -4 -8 -10 2 -8 12
-10 12 -10 -5 0 -17 -2 -17 -10 -5 -8 13 -10 12 -10 -3 0 -10 -5 -15 -10 -12
-6 3 -13 -1 -16 -10 -5 -12 -9 -13 -21 -4 -11 10 -13 9 -11 -2 2 -9 -5 -14
-19 -13 -14 1 -20 -3 -16 -12 3 -8 1 -14 -5 -14 -6 0 -13 6 -15 13 -3 6 -6 2
-6 -10 -1 -16 -6 -21 -16 -17 -8 4 -15 1 -15 -4 0 -6 -9 -9 -20 -7 -11 2 -18
0 -15 -4 4 -8 -27 -27 -32 -19 -1 2 -9 -6 -18 -17 -9 -11 -14 -15 -10 -8 3 7
-12 3 -34 -9 -22 -12 -37 -26 -34 -31 3 -6 1 -7 -5 -4 -15 10 -43 -3 -35 -16
4 -6 0 -8 -10 -4 -10 3 -17 2 -17 -3 0 -5 -7 -6 -17 -3 -11 4 -14 3 -9 -5 4
-7 1 -12 -8 -12 -9 0 -16 -4 -16 -10 0 -5 -7 -6 -17 -3 -10 4 -14 2 -9 -5 3
-6 -3 -13 -16 -17 -42 -12 -67 -28 -61 -39 4 -6 -1 -5 -10 3 -14 11 -18 11
-23 -3 -4 -10 -13 -15 -21 -12 -8 3 -11 1 -8 -4 3 -6 -3 -10 -15 -10 -11 0
-23 -7 -26 -15 -4 -8 -10 -12 -15 -9 -5 3 -12 -2 -15 -10 -3 -9 -9 -14 -13
-12 -4 3 -15 -6 -25 -19 -10 -14 -23 -22 -29 -18 -6 3 -7 1 -3 -5 4 -7 2 -12
-3 -12 -6 0 -11 -8 -11 -19 0 -10 -10 -26 -23 -35 -12 -9 -15 -14 -7 -10 10 5
9 0 -4 -14 -11 -12 -15 -22 -10 -22 5 0 2 -5 -6 -10 -12 -8 -12 -10 -1 -10 10
0 11 -4 3 -12 -6 -7 -9 -30 -8 -50 1 -21 -3 -38 -8 -38 -5 0 -2 -8 7 -18 11
-12 13 -22 7 -32 -5 -8 -5 -17 0 -20 4 -3 10 -14 12 -25 1 -11 9 -26 16 -33 7
-8 9 -18 6 -24 -4 -6 -2 -8 3 -5 6 4 13 -3 16 -14 3 -12 10 -18 16 -14 7 4 8
0 4 -11 -4 -12 -3 -15 5 -10 7 4 15 0 18 -9 6 -15 40 -34 56 -31 4 0 14 -8 23
-19 9 -11 13 -14 10 -7 -6 11 -3 11 13 1 12 -7 18 -18 14 -24 -3 -5 2 -4 12 4
10 9 20 11 24 5 9 -12 63 -12 81 0 8 5 17 4 23 -5 7 -11 11 -11 15 -1 2 6 15
12 28 12 13 0 27 5 30 10 4 6 11 8 16 5 5 -4 9 2 9 12 0 15 2 16 10 3 6 -10
10 -11 10 -2 0 6 7 12 15 12 7 0 19 8 24 18 7 12 10 13 11 3 0 -9 7 -6 20 9
11 13 20 17 20 10 0 -8 7 -6 17 7 10 11 24 18 31 16 6 -3 12 1 12 8 0 7 3 9 7
6 3 -4 11 0 17 8 6 8 21 16 34 18 13 2 28 10 33 18 5 8 9 10 9 5 0 -6 7 -1 16
10 8 10 12 13 9 6 -6 -12 -3 -12 16 -1 13 7 27 12 31 11 5 -1 7 4 5 11 -1 6 4
11 11 9 7 -1 15 5 18 13 4 8 10 15 16 15 5 0 6 -5 2 -11 -3 -6 5 -3 20 6 14 9
23 22 20 27 -4 6 3 5 15 -1 17 -9 20 -9 15 3 -4 10 2 16 18 18 13 2 22 9 20
17 -3 12 0 12 12 1 9 -7 16 -9 16 -4 0 5 14 17 31 26 18 11 27 13 24 5 -4 -6
3 -1 15 13 12 14 18 18 14 10 -6 -12 -5 -13 8 -3 8 7 18 9 22 5 4 -4 6 0 4 8
-2 8 3 14 10 13 6 -2 12 2 12 8 0 5 5 7 11 4 6 -4 16 0 22 9 7 9 22 17 35 19
13 2 28 10 33 18 5 8 9 10 9 4 0 -5 7 -2 15 9 7 10 18 15 24 11 6 -3 11 -1 11
5 0 7 7 10 15 6 9 -3 15 0 15 9 0 8 3 14 8 14 19 -3 33 2 28 10 -3 5 7 8 24 7
25 -2 27 0 17 13 -6 9 -7 13 -3 9 5 -4 15 -3 23 3 7 6 13 8 13 3 0 -4 7 1 16
12 8 10 13 13 9 7 -4 -9 -1 -11 9 -7 9 3 14 10 11 14 -3 5 0 12 7 16 7 4 10 4
6 -1 -4 -4 3 -16 15 -26 14 -11 17 -18 8 -19 -7 0 -11 -6 -7 -15 3 -8 1 -15
-4 -15 -6 0 -10 -5 -10 -11 0 -5 6 -7 12 -3 7 4 4 -3 -7 -16 -11 -13 -14 -20
-6 -15 10 6 12 4 5 -6 -5 -8 -7 -22 -6 -31 2 -10 -1 -18 -5 -18 -5 0 -8 -13
-7 -30 1 -16 -2 -30 -6 -30 -5 0 -7 -9 -5 -20 2 -11 -2 -20 -8 -20 -7 0 -6 -4
3 -10 11 -7 11 -10 2 -10 -7 0 -11 -4 -8 -8 2 -4 1 -14 -4 -22 -5 -9 -4 -20 3
-29 9 -12 9 -13 0 -7 -9 5 -13 0 -13 -13 0 -32 -1 -35 -12 -48 -7 -9 -7 -13 1
-13 14 0 11 -32 -4 -42 -7 -5 -6 -8 0 -8 6 0 12 -12 13 -27 1 -16 6 -29 12
-31 5 -2 7 -9 4 -16 -2 -6 7 -22 21 -34 14 -12 25 -26 25 -32 0 -5 7 -10 15
-10 8 0 15 -4 15 -10 0 -5 9 -10 20 -10 11 0 20 -5 20 -11 0 -16 139 -9 155 8
8 7 16 14 17 14 16 -1 48 13 48 21 0 5 4 7 9 4 5 -3 14 1 21 9 7 8 17 15 23
15 6 0 22 10 35 23 14 12 22 16 18 9 -4 -7 13 2 38 19 25 16 51 27 57 23 7 -4
9 -3 5 4 -6 10 30 28 47 24 5 -1 6 2 2 8 -3 5 0 10 9 10 8 0 16 5 18 12 2 6
11 9 20 6 10 -4 13 -15 10 -37 -2 -17 -7 -29 -11 -27 -4 3 -7 -4 -7 -15 0 -10
4 -19 9 -19 5 0 5 -6 -1 -13 -6 -7 -13 -28 -14 -46 -1 -18 -5 -34 -9 -37 -3
-2 -5 -15 -4 -29 2 -14 -1 -25 -6 -25 -6 0 -7 -5 -4 -10 4 -6 1 -36 -6 -68 -6
-31 -13 -68 -15 -82 -1 -14 -5 -36 -8 -50 -3 -13 -8 -42 -12 -65 -7 -48 -12
-70 -14 -70 -1 0 -4 -18 -5 -40 -2 -22 -4 -40 -5 -40 -2 0 -9 -33 -15 -75 -6
-43 -13 -75 -15 -75 -1 0 -3 -13 -5 -30 -7 -57 -15 -100 -21 -125 -4 -14 -8
-34 -8 -45 -1 -11 -4 -24 -7 -30 -3 -5 -5 -17 -4 -25 1 -8 -2 -25 -7 -38 -5
-16 -5 -21 3 -16 8 4 8 1 1 -13 -6 -10 -9 -41 -8 -68 2 -52 34 -155 48 -155 4
0 8 -5 8 -11 0 -16 82 -89 107 -96 13 -3 23 -9 23 -13 0 -10 80 -23 143 -24
96 -2 217 77 263 171 10 21 19 43 20 48 1 6 5 24 9 40 3 17 8 39 10 50 2 11 6
36 10 55 4 19 9 46 10 60 2 14 4 25 5 25 1 0 3 14 5 30 1 17 4 30 5 30 1 0 4
14 6 30 5 46 13 100 15 103 2 2 2 4 13 57 11 53 17 92 19 135 1 19 5 37 8 40
9 6 20 77 19 113 0 15 5 27 10 27 6 0 8 5 5 10 -4 6 -1 18 7 27 7 9 8 14 3 11
-14 -9 -12 32 3 57 6 11 12 15 12 8 0 -6 -5 -15 -11 -19 -8 -5 -8 -8 0 -13 12
-8 19 -35 23 -88 1 -18 5 -33 8 -33 3 0 6 -15 7 -33 3 -32 10 -72 13 -72 1 0
3 -13 5 -30 1 -16 3 -30 5 -30 1 0 3 -13 5 -30 1 -16 3 -30 4 -30 4 0 13 -69
15 -102 0 -18 4 -33 7 -33 4 0 7 -12 7 -26 0 -15 6 -30 13 -35 8 -5 10 -9 4
-9 -5 0 -10 -11 -10 -25 0 -14 4 -25 9 -25 4 0 6 -7 3 -15 -4 -8 -2 -17 3 -20
4 -3 7 -16 5 -30 -1 -14 1 -25 4 -25 6 0 8 -18 13 -92 1 -16 5 -28 8 -28 3 0
7 -11 8 -25 1 -14 9 -42 18 -63 10 -20 18 -41 18 -45 1 -4 8 -12 16 -17 8 -5
12 -10 8 -10 -16 0 93 -93 112 -95 3 0 10 -4 17 -8 6 -4 23 -8 37 -9 14 -1 26
-5 26 -9 0 -3 28 -4 63 -2 88 6 87 6 87 14 0 4 9 6 20 4 11 -2 18 0 15 4 -3 5
6 12 20 15 22 6 135 106 119 106 -3 0 1 12 11 26 9 14 19 35 22 47 9 32 8 166
-1 212 -4 22 -9 51 -11 65 -1 14 -4 25 -5 25 -4 0 -10 42 -12 78 -1 20 -5 37
-8 37 -3 0 -6 8 -7 18 -1 21 -11 97 -13 97 -2 0 -5 16 -15 80 -4 22 -9 54 -12
70 -3 17 -6 40 -7 53 0 12 -4 22 -10 22 -5 0 -7 3 -3 6 3 3 2 17 -3 30 -7 16
-6 24 1 24 8 0 8 5 -1 14 -6 8 -10 23 -8 33 1 10 0 23 -4 28 -5 9 -20 92 -21
123 0 6 -5 12 -10 12 -5 0 -4 7 3 15 8 9 9 15 2 15 -6 0 -9 9 -7 20 2 11 0 20
-5 20 -5 0 -9 15 -8 32 0 38 -4 57 -16 77 -7 11 -6 12 5 6 12 -7 12 -6 1 7 -7
9 -12 20 -11 24 1 5 0 11 -1 14 -1 3 -2 19 -3 37 -2 31 -1 31 20 18 21 -14 80
-47 203 -113 36 -19 92 -50 125 -69 49 -29 71 -35 127 -38 43 -2 68 1 68 8 0
6 3 8 6 4 12 -12 63 23 101 69 36 45 38 51 40 122 1 41 -4 94 -12 118 -7 23
-11 45 -8 48 3 2 1 11 -3 18 -8 13 -10 20 -17 73 -3 17 -10 42 -15 56 -6 15
-8 29 -5 32 3 3 1 11 -3 18 -12 21 -16 79 -4 79 5 0 10 -4 10 -8 0 -5 6 -9 13
-9 6 0 72 -32 144 -71 73 -40 137 -72 143 -72 5 0 10 -5 10 -11 0 -5 4 -8 8
-5 5 3 25 -6 45 -20 20 -14 37 -21 37 -17 0 4 4 3 8 -3 8 -12 305 -169 311
-165 2 1 7 -2 10 -7 7 -12 333 -178 352 -180 8 0 38 -3 68 -5 89 -7 193 40
255 116 29 37 60 103 61 132 0 6 3 15 6 20 5 9 4 90 -1 90 -1 0 -3 11 -4 25
-2 41 -43 112 -89 158 -24 23 -81 62 -128 86 -145 75 -264 138 -274 146 -5 4
-62 33 -125 66 -63 32 -127 66 -142 77 -16 10 -28 15 -28 10 0 -4 -7 1 -16 12
-8 11 -17 19 -19 18 -8 -4 -75 30 -75 38 0 4 15 5 33 3 17 -1 32 -3 32 -4 0
-2 33 -7 95 -15 25 -3 59 -7 75 -10 17 -2 48 -6 70 -9 22 -3 58 -8 80 -12 22
-3 54 -8 70 -10 91 -11 150 -20 295 -42 25 -4 81 -7 126 -6 130 0 216 52 279
167 27 48 50 188 34 205 -4 4 -10 19 -13 34 -5 27 -20 61 -40 86 -30 38 -77
81 -95 87 -12 3 -21 11 -21 16 0 6 -4 7 -10 4 -5 -3 -10 -2 -10 3 0 5 -6 9
-12 10 -15 1 -53 10 -53 12 0 1 -18 3 -40 6 -58 5 -100 11 -100 14 0 1 -11 3
-25 4 -27 3 -104 13 -160 22 -19 3 -53 7 -75 10 -40 5 -68 9 -135 19 -19 3
-54 7 -76 9 -23 2 -46 6 -52 10 -5 3 -39 8 -75 10 -36 2 -70 6 -75 10 -6 3
-34 9 -64 12 -29 3 -62 6 -73 8 -11 2 -33 4 -48 5 -20 1 -26 5 -21 14 6 9 5 9
-8 0 -8 -7 -17 -10 -20 -7 -4 3 -32 8 -65 10 -32 3 -62 9 -66 13 -4 4 49 61
119 127 70 65 147 137 170 159 23 22 44 47 46 55 2 8 7 18 11 21 10 7 20 64
18 104 0 17 -1 38 -2 48 0 9 -4 17 -8 17 -4 0 -13 16 -21 35 -8 19 -17 35 -21
35 -4 0 -14 6 -21 14 -21 21 -78 47 -88 41 -5 -3 -11 -1 -14 3 -3 5 -24 9 -48
10 -49 2 -84 8 -98 17 -6 3 -10 1 -10 -5 0 -7 -6 -8 -17 -1 -10 5 -35 10 -55
11 -78 3 -88 4 -88 15 0 5 -5 3 -10 -5 -5 -8 -10 -10 -10 -5 0 6 -12 11 -27
12 -16 0 -37 1 -48 2 l-20 2 20 11 c26 15 49 38 38 38 -4 0 4 8 20 18 15 10
24 22 20 25 -3 4 1 7 10 7 10 0 17 5 17 11 0 5 4 7 10 4 6 -3 7 1 4 10 -4 9
-2 15 3 13 5 -2 41 30 81 70 40 39 78 72 84 72 6 0 9 3 5 6 -6 6 24 37 62 63
11 8 18 18 15 22 -2 4 5 10 16 14 11 3 20 14 20 22 0 9 3 14 6 10 4 -3 23 12
43 33 21 22 43 40 49 40 7 0 11 3 9 8 -3 9 40 52 54 52 5 0 8 3 6 8 -2 4 6 17
19 30 13 12 24 21 24 18 0 -3 13 7 28 22 15 15 26 30 24 35 -2 4 2 7 8 7 16 0
197 185 205 210 3 11 10 20 14 20 4 0 8 7 9 15 1 8 3 22 4 30 1 8 5 15 9 15 9
0 10 10 9 93 0 33 -5 67 -10 77 -5 9 -6 20 -3 24 3 3 1 6 -6 6 -7 0 -11 6 -9
12 3 7 -1 19 -9 26 -7 8 -11 18 -7 23 3 5 1 8 -5 7 -5 -2 -21 12 -35 31 -14
19 -26 31 -26 27 0 -5 -9 2 -21 15 -11 13 -18 17 -14 9 4 -8 -1 -6 -10 5 -9
11 -17 19 -18 17 -2 -4 -54 15 -70 25 -6 4 -7 1 -2 -7 6 -10 4 -11 -6 -4 -8 5
-23 9 -34 9 -11 0 -26 4 -32 8 -8 5 -13 3 -13 -3 0 -6 -4 -8 -10 -5 -5 3 -10
0 -10 -7 0 -8 -3 -9 -8 -3 -9 13 -42 16 -42 4 0 -5 -7 -9 -15 -9 -16 0 -50
-17 -71 -35 -42 -36 -53 -43 -58 -38 -3 4 -6 -1 -6 -9 0 -9 -7 -19 -16 -22 -8
-3 -12 -11 -8 -17 4 -8 3 -9 -4 -5 -6 3 -16 -3 -22 -14 -6 -11 -15 -18 -21
-15 -5 4 -9 0 -9 -7 0 -7 -12 -24 -27 -38 -15 -14 -23 -18 -18 -10 5 8 -5 2
-21 -15 -16 -16 -28 -33 -26 -37 2 -5 -3 -8 -11 -8 -8 0 -22 -11 -31 -25 -9
-14 -21 -23 -27 -20 -5 4 -8 3 -7 -2 3 -10 -81 -93 -94 -93 -5 0 -7 -3 -5 -7
4 -8 -57 -72 -71 -74 -4 0 -6 -5 -5 -10 2 -5 -4 -9 -12 -9 -8 0 -15 -6 -15
-14 0 -8 -9 -17 -19 -21 -11 -3 -23 -15 -26 -26 -4 -10 -11 -17 -16 -14 -5 4
-12 -1 -15 -9 -3 -9 -10 -13 -15 -10 -5 3 -9 -2 -9 -10 0 -9 -6 -16 -13 -16
-24 0 -28 13 -12 37 9 13 13 29 9 35 -4 7 -3 8 4 4 8 -5 12 0 12 14 0 11 6 23
14 26 8 3 13 11 10 18 -3 7 2 19 10 26 9 7 13 16 10 21 -3 5 0 9 6 9 6 0 9 4
5 9 -3 6 3 14 12 20 10 6 12 11 6 11 -7 0 -13 5 -13 11 0 5 4 8 9 4 5 -3 15
11 22 30 7 19 17 35 22 35 5 0 7 7 3 15 -3 10 1 15 12 15 15 0 15 2 2 10 -8 5
-10 10 -4 10 11 0 28 35 25 53 -1 4 4 7 10 7 5 0 8 4 5 9 -4 5 -1 11 4 13 6 2
12 12 14 21 1 10 9 23 17 28 8 5 10 9 5 9 -5 0 -2 8 5 17 12 14 12 16 -1 8 -8
-5 -5 4 8 19 12 16 22 35 22 42 0 8 5 14 10 14 6 0 10 11 10 25 0 14 7 28 15
31 8 4 12 10 10 15 -3 4 3 17 13 27 10 10 16 24 14 30 -2 7 1 12 7 12 6 0 11
5 11 11 0 5 -6 7 -12 4 -7 -4 -6 -1 3 7 9 7 15 23 14 35 -1 12 2 20 6 17 4 -2
7 8 5 23 -1 16 1 40 5 56 4 15 4 25 0 23 -4 -3 -8 11 -9 32 -1 20 -6 38 -12
40 -6 2 -8 8 -4 13 3 5 -1 12 -10 15 -8 3 -12 12 -10 19 3 7 0 16 -5 20 -6 3
-9 11 -6 16 4 5 -2 6 -12 2 -10 -3 -15 -3 -11 1 8 9 -42 62 -54 59 -4 -2 -8 2
-8 7 0 6 -6 10 -14 10 -8 0 -16 5 -18 10 -2 6 -13 12 -26 13 -12 0 -22 4 -22
7 0 3 -15 7 -32 8 -47 4 -61 7 -75 15 -6 4 -15 2 -18 -4z m-25 -1219 c0 -6 -7
-10 -15 -10 -8 0 -15 -5 -15 -11 0 -5 -5 -7 -11 -3 -8 5 -6 10 5 16 14 8 15
12 4 25 -12 15 -11 15 10 4 12 -6 22 -16 22 -21z m-1123 -255 c-4 -8 -1 -17 5
-21 7 -5 8 -2 3 6 -5 9 -4 11 4 6 9 -6 9 -11 -1 -24 -7 -9 -8 -13 -2 -9 15 9
45 -45 34 -63 -7 -11 -11 -11 -24 2 -8 9 -12 19 -8 23 4 5 -5 0 -20 -11 -19
-14 -23 -22 -16 -31 7 -9 7 -13 0 -13 -6 0 -14 5 -17 10 -4 6 -10 8 -15 5 -5
-3 -12 -1 -15 5 -4 6 -1 9 6 8 7 -2 14 4 14 12 2 32 25 71 37 64 10 -5 10 -4
1 6 -13 14 -7 40 9 40 6 0 8 -7 5 -15z m50 -114 c9 8 14 9 10 2 -4 -6 -3 -14
3 -18 15 -9 1 -27 -17 -21 -8 3 -12 2 -9 -3 3 -5 -1 -12 -10 -15 -11 -4 -14
-1 -9 13 3 11 -1 24 -12 32 -14 11 -15 12 -9 0 5 -8 3 -17 -5 -22 -10 -6 -11
-9 -1 -9 6 0 12 -5 12 -11 0 -5 -4 -7 -10 -4 -5 3 -10 1 -10 -6 0 -7 -3 -9 -7
-5 -5 4 -8 13 -8 19 0 7 -8 12 -17 12 -10 0 -22 5 -28 11 -13 13 17 13 38 0
15 -9 35 2 27 15 -13 20 7 30 26 13 16 -14 21 -15 36 -3z m-95 -48 c-10 -4 -8
-8 5 -18 12 -9 23 -10 35 -4 10 5 18 7 18 4 0 -3 14 2 31 10 35 19 48 13 28
-12 -12 -15 -12 -16 3 -11 17 7 32 -21 28 -56 -1 -11 3 -15 9 -12 6 4 11 2 11
-3 0 -6 -5 -11 -11 -11 -5 0 -7 -5 -3 -12 4 -6 3 -8 -4 -4 -6 3 -15 -2 -21
-11 -5 -10 -13 -14 -17 -10 -4 4 2 15 15 23 l23 16 -31 19 c-37 22 -45 24 -35
7 11 -18 12 -48 2 -48 -8 0 -10 7 -12 39 -1 8 -6 16 -11 18 -14 4 -17 -35 -4
-42 5 -4 7 -11 4 -16 -4 -5 1 -9 9 -9 8 0 18 -4 21 -10 4 -6 -2 -7 -17 -1 -13
4 -24 13 -24 20 -3 24 -5 26 -14 11 -5 -9 -5 -19 1 -27 7 -8 7 -18 -1 -30 -10
-16 -10 -16 -5 4 3 12 1 24 -5 28 -6 3 -10 -4 -11 -17 -1 -18 -2 -19 -6 -5 -3
10 1 25 8 33 6 8 9 18 5 21 -4 4 -12 1 -17 -7 -9 -13 -10 -12 -5 2 3 10 1 20
-4 23 -6 4 -11 0 -11 -7 -1 -7 -2 -19 -3 -27 0 -8 -11 -15 -23 -16 -14 -1 -19
3 -16 12 4 10 9 11 19 2 10 -8 14 -8 14 -1 0 18 -37 34 -43 19 -4 -7 -6 -8 -6
-1 -1 6 7 18 16 25 9 8 14 9 10 3 -4 -7 0 -15 9 -18 12 -4 14 -1 9 13 -3 11
-1 22 5 26 5 3 10 11 10 17 0 6 -9 3 -20 -7 -11 -10 -20 -14 -20 -10 0 5 -7 0
-16 -11 -14 -18 -15 -18 -4 4 6 12 7 22 3 22 -4 0 -1 6 8 13 16 12 19 18 19
36 0 5 12 8 28 8 15 0 21 -2 14 -4z m128 -107 c0 -3 -4 -8 -10 -11 -5 -3 -10
-1 -10 4 0 6 5 11 10 11 6 0 10 -2 10 -4z m-137 -61 c-3 -9 -8 -14 -10 -11 -3
3 -2 9 2 15 9 16 15 13 8 -4z m120 -16 c-8 -8 -13 -7 -18 2 -5 8 -4 10 3 5 7
-4 12 -2 12 5 0 7 3 9 7 6 4 -4 2 -12 -4 -18z m-22 -16 c10 -12 11 -15 1 -9
-7 4 -20 2 -29 -6 -15 -12 -15 -11 -2 10 17 26 13 26 30 5z m-67 -4 c3 -3 -5
-5 -19 -5 -13 0 -22 3 -19 7 4 8 30 6 38 -2z m-1 -34 c-3 -9 -8 -14 -10 -11
-3 3 -2 9 2 15 9 16 15 13 8 -4z m72 -25 c3 -6 -1 -7 -9 -4 -18 7 -21 14 -7
14 6 0 13 -4 16 -10z m915 -401 c0 -5 -4 -8 -8 -5 -4 2 -8 -4 -8 -14 0 -10 5
-16 11 -13 5 3 4 0 -2 -8 -18 -18 -16 -32 3 -25 10 4 13 2 9 -7 -4 -6 -1 -5 7
3 18 21 35 22 42 4 4 -12 2 -15 -9 -11 -8 4 -17 2 -21 -4 -3 -6 -12 -8 -20 -5
-8 3 -11 0 -7 -9 3 -8 9 -13 13 -10 5 3 12 0 16 -6 4 -7 3 -9 -2 -6 -6 3 -11
-3 -11 -14 -1 -11 5 -23 13 -26 12 -4 12 -8 4 -13 -9 -5 -9 -9 -1 -14 6 -4 11
-2 11 5 0 9 3 9 14 0 11 -9 16 -9 22 0 4 7 3 9 -3 6 -6 -4 -16 0 -23 8 -14 17
-7 19 20 5 16 -8 18 -8 14 5 -3 8 -10 12 -15 9 -5 -3 -9 1 -9 8 0 8 9 14 19
15 11 1 19 -4 17 -10 -1 -7 -1 -9 1 -4 3 4 9 5 14 1 5 -3 9 -2 8 3 -3 19 2 34
10 29 5 -4 8 2 7 11 -4 28 -31 27 -46 -1 -13 -26 -30 -26 -30 0 0 8 5 13 12
12 6 -2 13 6 15 17 3 19 3 19 -5 1 -7 -15 -10 -17 -17 -6 -5 9 -1 19 13 30 12
10 19 20 16 23 -3 2 7 5 21 5 16 0 25 -6 26 -17 0 -12 2 -11 9 4 6 13 9 15 9
5 1 -9 4 -11 9 -5 12 17 32 16 33 -2 0 -10 3 -13 5 -6 3 7 12 9 21 6 12 -5 14
-3 8 7 -6 9 -4 11 4 5 9 -5 3 -16 -21 -38 -18 -17 -36 -30 -40 -29 -5 1 -8 -4
-8 -12 0 -8 -9 -18 -21 -21 -11 -4 -18 -9 -15 -12 2 -3 -16 -23 -41 -44 -36
-32 -48 -37 -59 -28 -9 8 -14 8 -14 1 0 -6 5 -14 10 -17 15 -9 3 -24 -18 -20
-10 1 -16 10 -14 21 2 18 2 18 -14 -1 -16 -20 -16 -19 -9 5 7 22 6 23 -8 12
-9 -8 -20 -11 -26 -8 -5 4 -12 -2 -14 -11 -4 -16 -5 -16 -6 -1 0 9 4 20 9 23
8 5 7 11 -1 21 -8 10 -8 14 0 14 10 0 15 -13 12 -32 -1 -11 17 -10 23 0 9 16
-24 51 -42 46 -13 -5 -14 -4 -3 4 8 6 10 12 3 16 -6 4 -15 -2 -21 -11 -5 -10
-13 -15 -17 -11 -4 4 4 17 17 28 l24 20 -23 19 c-13 12 -18 22 -12 26 5 3 10
2 10 -2 0 -5 9 -9 21 -10 16 -2 18 1 10 11 -14 16 -5 42 16 50 13 5 14 4 3 -9
-8 -10 -9 -15 -2 -15 6 0 16 9 22 20 11 21 30 27 30 9z m80 -15 c0 -6 -7 -18
-16 -25 -15 -12 -16 -11 -10 11 l7 25 -15 -25 c-9 -14 -15 -21 -16 -17 0 4
-10 3 -22 -3 -22 -11 -22 -10 -4 4 11 9 23 16 28 16 4 0 8 5 8 11 0 8 -5 7
-15 -1 -16 -13 -31 -8 -22 7 8 13 77 10 77 -3z m-2052 -34 c8 0 20 -8 27 -17
11 -15 13 -14 13 9 0 20 -5 25 -24 22 -13 -1 -27 3 -31 9 -3 7 -3 9 2 5 4 -4
15 -2 23 5 13 9 14 9 8 0 -8 -14 6 -18 18 -6 3 4 13 8 22 9 12 2 13 -1 4 -11
-19 -23 -19 -65 0 -75 9 -5 25 -21 34 -35 17 -25 16 -25 -3 -13 -11 6 -18 15
-15 19 2 4 -8 14 -22 24 -19 12 -29 14 -37 6 -14 -14 -17 -71 -4 -71 6 0 8 -3
4 -6 -10 -10 17 -32 33 -26 16 6 15 4 -14 -18 -11 -8 -17 -10 -13 -3 10 16
-28 41 -58 37 -14 -1 -23 1 -20 5 2 5 -7 14 -20 21 -14 7 -27 21 -31 32 -3 10
-10 18 -15 18 -5 0 -9 4 -9 8 0 5 7 9 15 9 8 0 13 -3 10 -5 -3 -3 3 -11 13
-19 9 -8 11 -11 3 -7 -10 5 -12 3 -7 -5 6 -8 12 -9 20 -2 7 6 16 8 19 5 4 -4
4 3 2 15 -2 12 0 19 5 16 5 -3 7 5 4 17 -3 13 -7 33 -10 46 l-5 23 23 -20 c12
-12 28 -21 36 -21z m110 23 c-2 -10 -9 -18 -16 -18 -7 0 -17 -7 -22 -15 -5 -8
-10 -10 -10 -5 0 20 18 37 31 30 9 -6 11 -3 6 8 -3 10 -2 17 4 17 6 0 9 -8 7
-17z m-209 -7 c22 5 29 1 39 -20 7 -16 8 -27 1 -31 -5 -4 -7 -10 -4 -15 3 -5
1 -11 -4 -15 -12 -7 -34 32 -26 45 4 6 12 7 18 4 7 -4 5 1 -5 11 -20 22 -41
11 -32 -18 6 -20 5 -21 -11 -7 -11 9 -16 10 -11 3 5 -9 0 -12 -18 -11 -13 1
-24 5 -24 8 2 21 -4 29 -19 24 -15 -5 -15 -4 -3 4 8 6 18 8 22 6 4 -3 8 0 8 7
0 7 8 5 21 -7 22 -19 22 -19 15 6 -3 14 -3 20 0 13 3 -7 16 -10 33 -7z m11
-20 c0 -3 -4 -8 -10 -11 -5 -3 -10 -1 -10 4 0 6 5 11 10 11 6 0 10 -2 10 -4z
m225 -6 c3 -6 -1 -7 -9 -4 -18 7 -21 14 -7 14 6 0 13 -4 16 -10z m-32 -13 c7
3 9 2 4 -2 -4 -5 -17 -10 -28 -12 -16 -2 -18 -1 -7 11 7 8 15 10 16 5 2 -5 9
-6 15 -2z m67 -1 c0 -2 -7 -7 -16 -10 -8 -3 -12 -2 -9 4 6 10 25 14 25 6z
m-43 -21 c0 -8 -4 -15 -9 -15 -10 0 -11 14 -1 23 9 10 10 9 10 -8z m1737 -15
c-6 -6 -10 -3 -10 10 0 13 4 16 10 10 7 -7 7 -13 0 -20z m155 -11 c-6 -3 -10
-10 -9 -15 1 -5 -3 -10 -9 -12 -14 -5 -14 15 -1 23 8 5 8 11 1 19 -6 7 -8 16
-4 20 4 4 13 -1 20 -10 9 -13 10 -20 2 -25z m69 22 c-7 -11 -16 -17 -20 -14
-10 5 10 33 23 33 5 0 4 -9 -3 -19z m-248 0 c0 -5 -7 -12 -16 -15 -14 -5 -15
-4 -4 9 14 17 20 19 20 6z m-1794 -25 c3 -8 1 -22 -4 -31 -8 -16 -9 -16 -15
-1 -4 10 -3 15 3 11 6 -3 10 1 10 10 0 9 -4 13 -10 10 -5 -3 -10 -1 -10 4 0
16 20 13 26 -3z m159 -24 c-3 -3 -11 0 -18 7 -9 10 -8 11 6 5 10 -3 15 -9 12
-12z m1620 9 c3 -5 2 -12 -3 -15 -5 -3 -9 1 -9 9 0 17 3 19 12 6z m-1735 -28
c0 -3 -7 -2 -16 1 -11 4 -15 2 -11 -7 3 -8 -1 -14 -8 -14 -10 0 -11 5 -4 18 8
16 39 17 39 2z m1793 -8 c4 -8 3 -16 -1 -19 -4 -3 -9 4 -9 15 -2 23 3 25 10 4z
m-1754 2 c-2 -1 -13 -9 -24 -17 -19 -14 -19 -14 -6 3 7 9 18 17 24 17 6 0 8
-1 6 -3z m1731 -13 c0 -2 -7 -4 -15 -4 -8 0 -15 4 -15 10 0 5 7 7 15 4 8 -4
15 -8 15 -10z m-1655 -13 c-9 -8 -36 -10 -30 -2 2 4 11 8 20 8 8 0 13 -3 10
-6z m-218 -23 c-3 -8 -6 -5 -6 6 -1 11 2 17 5 13 3 -3 4 -12 1 -19z m117 0
c-3 -4 -11 -5 -19 -1 -21 7 -19 12 4 10 11 0 18 -5 15 -9z m1456 -872 c0 -2
-8 -10 -17 -17 -16 -13 -17 -12 -4 4 13 16 21 21 21 13z m52 -35 c-4 -10 -7
-11 -10 -3 -2 7 -9 9 -14 6 -6 -4 -8 -3 -5 3 10 16 36 11 29 -6z m-1125 -16
c0 -8 -4 -12 -9 -9 -5 3 -6 10 -3 15 9 13 12 11 12 -6z m1081 3 c-2 -6 -10
-13 -16 -14 -7 -1 -8 0 -2 3 5 2 8 9 4 14 -3 5 0 9 6 9 7 0 10 -5 8 -12z m112
-11 c13 4 13 3 0 -6 -13 -10 -13 -11 0 -12 8 -1 19 -1 24 0 5 1 4 -4 -3 -13
-7 -9 -8 -17 -2 -20 5 -3 12 0 15 6 2 7 3 2 2 -12 -2 -14 2 -31 8 -39 8 -11 8
-13 -1 -7 -8 4 -13 2 -13 -5 0 -6 -9 -1 -21 12 -11 13 -17 17 -13 9 7 -13 6
-13 -11 0 -15 12 -17 12 -10 1 6 -10 4 -12 -6 -6 -11 7 -11 5 1 -10 8 -10 10
-16 3 -12 -12 8 -11 -20 2 -46 4 -6 -1 -3 -9 7 -11 14 -16 15 -16 6 0 -9 -5
-7 -14 6 -8 10 -18 16 -22 11 -4 -4 -2 -7 4 -7 7 0 12 -5 12 -11 0 -8 -4 -9
-13 0 -8 6 -16 10 -18 8 -3 -1 9 10 26 25 16 15 25 28 18 28 -6 0 -15 -5 -18
-10 -4 -6 -10 -8 -15 -5 -8 5 -26 -35 -21 -44 2 -2 -3 -8 -11 -13 -8 -5 -4 -7
15 -4 15 3 25 1 22 -5 -4 -5 0 -9 7 -9 9 0 9 -3 -2 -10 -8 -5 -10 -10 -5 -11
6 0 20 -2 32 -5 11 -2 23 2 26 9 6 17 59 16 65 -1 2 -8 -2 -10 -15 -6 -15 6
-16 4 -5 -7 9 -10 15 -10 24 -1 15 15 -9 45 -30 37 -9 -3 -19 0 -24 7 -13 21
-9 31 7 18 23 -19 31 -3 11 19 -10 11 -13 22 -8 25 6 3 17 -10 26 -29 19 -40
30 -47 16 -10 -6 16 -6 25 0 25 6 0 10 -8 11 -17 1 -23 5 -44 14 -65 5 -12 2
-18 -6 -18 -9 -1 -8 -4 4 -11 9 -6 15 -14 12 -19 -3 -5 -1 -18 5 -29 7 -13 7
-22 0 -26 -5 -3 -10 2 -10 11 0 10 -3 14 -7 11 -3 -4 -17 0 -31 9 -13 9 -49
30 -81 47 -31 16 -59 34 -62 39 -3 5 -12 10 -20 12 -20 3 -56 25 -41 26 6 0
12 4 12 10 0 5 -8 7 -17 4 -10 -4 -4 5 12 19 20 17 39 24 57 22 15 -2 30 1 33
6 6 9 -6 13 -35 10 -8 -1 -5 5 8 12 12 7 19 17 15 21 -4 5 4 1 18 -8 26 -16
27 -16 43 9 18 27 17 28 -8 19 -9 -3 -13 -11 -10 -16 4 -6 -3 -5 -15 1 -25 14
-28 23 -3 14 15 -6 15 -5 3 10 -7 10 -9 17 -3 17 6 0 12 -6 15 -12 2 -7 8 -10
12 -6 4 4 2 16 -6 25 -13 17 -12 17 6 2 11 -9 27 -14 35 -12z m-1230 -5 c0 -5
-7 -9 -15 -9 -8 0 -12 4 -9 9 3 4 9 8 15 8 5 0 9 -4 9 -8z m1080 2 c0 -8 -19
-13 -24 -6 -3 5 1 9 9 9 8 0 15 -2 15 -3z m62 -3 c-8 -4 -14 -12 -14 -17 0 -5
-3 -15 -6 -22 -4 -11 -6 -11 -13 0 -5 7 -9 18 -9 23 0 6 5 3 10 -5 5 -8 10
-12 11 -7 1 4 3 12 4 17 1 6 3 12 4 15 0 3 7 5 14 5 9 0 9 -2 -1 -9z m-1182
-21 c0 -6 -7 -13 -15 -16 -8 -4 -12 -10 -9 -16 3 -5 13 -7 23 -3 13 5 14 4 3
-6 -10 -11 -15 -10 -29 4 -15 15 -15 17 0 23 9 3 14 10 11 15 -3 5 0 9 5 9 6
0 11 -5 11 -10z m-47 -14 c-11 -17 -12 -56 -2 -56 5 0 9 5 9 11 0 8 4 8 14 -1
8 -6 12 -18 9 -26 -3 -8 -2 -14 3 -13 20 3 35 -2 30 -10 -8 -12 4 -41 16 -41
5 0 7 8 3 19 -7 23 17 44 40 34 11 -4 16 -2 12 3 -3 6 -1 16 4 24 7 11 8 8 5
-10 -3 -19 -9 -24 -27 -23 -22 3 -22 2 -7 -11 10 -7 15 -16 11 -19 -3 -4 -12
1 -19 11 -11 15 -12 12 -10 -21 3 -30 -1 -40 -18 -49 -11 -6 -23 -12 -26 -12
-3 -1 -4 -5 -2 -11 2 -5 -2 -4 -10 3 -11 11 -10 15 2 23 13 9 12 10 -2 5 -10
-3 -20 0 -24 6 -5 7 -2 8 6 3 9 -5 11 -4 6 3 -4 7 -16 17 -28 23 -16 9 -19 8
-13 -2 5 -7 4 -10 -1 -6 -6 3 -16 2 -24 -4 -13 -8 -13 -9 0 -9 10 0 7 -5 -8
-16 -12 -8 -20 -19 -17 -24 3 -5 1 -19 -5 -30 -9 -16 -8 -18 5 -14 8 3 12 10
9 15 -3 5 2 9 10 9 26 0 18 -24 -12 -41 l-28 -16 0 34 c1 18 4 33 9 33 4 0 6
4 2 9 -3 5 2 17 11 25 15 15 11 21 -11 16 -5 -1 -1 8 9 19 15 16 16 21 5 22
-9 0 -10 2 -2 5 7 3 11 11 9 17 -1 7 -1 9 1 5 8 -13 20 -9 20 7 0 8 -5 15 -10
15 -6 0 -8 3 -5 6 4 3 17 -2 31 -10 22 -15 25 -15 38 0 12 15 11 16 -9 10 -15
-5 -24 -3 -28 8 -3 8 -11 14 -17 12 -7 -1 -9 -1 -4 1 4 3 4 10 0 16 -4 7 1 6
10 -2 10 -8 17 -9 17 -3 0 6 -5 14 -10 17 -14 8 -5 22 14 22 8 0 12 -5 9 -11z
m94 -11 c4 -4 2 -5 -6 0 -10 6 -12 2 -6 -16 8 -27 3 -24 -14 8 -9 17 -8 21 4
19 8 -1 18 -6 22 -11z m1031 -10 c1 -13 -2 -26 -6 -29 -6 -3 -8 36 -3 52 3 8
7 -2 9 -23z m61 -3 c-1 -15 -2 -15 -6 1 -2 9 -9 14 -15 11 -7 -4 -8 -2 -4 5
10 15 26 4 25 -17z m-1041 -7 c-3 -3 -9 2 -12 12 -6 14 -5 15 5 6 7 -7 10 -15
7 -18z m1022 -5 c0 -5 -4 -10 -10 -10 -5 0 -10 5 -10 10 0 6 5 10 10 10 6 0
10 -4 10 -10z m-1104 -16 c-5 -13 -2 -15 14 -11 11 3 18 1 14 -4 -7 -12 -31
-11 -39 1 -3 6 -3 15 0 20 10 16 18 12 11 -6z m1084 -8 c0 -2 -7 -7 -16 -10
-8 -3 -12 -2 -9 4 6 10 25 14 25 6z m171 -33 c12 -16 12 -17 -2 -6 -9 7 -20 9
-24 5 -5 -4 -5 -1 -1 6 9 16 11 15 27 -5z m-1153 -5 c-3 -14 -50 -59 -55 -54
-3 3 49 65 55 66 1 0 1 -6 0 -12z m1117 -38 c0 -20 -31 -20 -32 0 -1 12 4 17
15 16 9 -2 17 -9 17 -16z m-1282 -17 c-8 -3 -5 -11 8 -24 10 -10 19 -24 19
-31 0 -6 -3 -8 -7 -5 -3 4 -12 2 -19 -4 -9 -7 -20 -5 -39 7 -26 17 -26 18 -9
32 11 7 18 17 17 21 -1 4 8 7 20 8 12 0 17 -1 10 -4z m-516 -68 c0 -8 -4 -15
-9 -15 -10 0 -11 14 -1 23 9 10 10 9 10 -8z"/>
<path d="M2988 4303 c6 -2 18 -2 25 0 6 3 1 5 -13 5 -14 0 -19 -2 -12 -5z"/>
<path d="M3030 4291 c0 -6 4 -13 10 -16 6 -3 7 1 4 9 -7 18 -14 21 -14 7z"/>
<path d="M2965 4280 c-3 -5 -2 -10 4 -10 5 0 13 5 16 10 3 6 2 10 -4 10 -5 0
-13 -4 -16 -10z"/>
<path d="M2929 4198 c-1 -5 -3 -12 -4 -18 -1 -5 -3 -15 -4 -21 0 -5 -6 -7 -13
-3 -7 5 -8 3 -3 -6 6 -10 10 -10 19 2 11 15 46 21 46 8 0 -4 -7 -13 -15 -20
-8 -7 -15 -18 -14 -24 0 -7 2 -7 5 1 4 8 12 5 25 -8 24 -24 32 -19 34 21 1 16
5 33 10 37 4 5 5 3 2 -3 -9 -15 19 -39 28 -24 3 5 11 10 16 10 6 0 8 -4 4 -9
-3 -6 3 -15 14 -20 24 -13 37 11 15 29 -8 7 -14 9 -14 4 0 -5 -4 -2 -10 6 -5
9 -5 19 2 27 8 11 7 12 -6 7 -10 -4 -15 -13 -11 -22 4 -11 2 -12 -7 -5 -18 14
-47 8 -63 -14 -10 -13 -13 -14 -12 -3 1 8 -1 15 -5 15 -4 0 -14 9 -22 20 -9
11 -16 17 -17 13z m115 -49 c-3 -5 -10 -7 -15 -3 -5 3 -7 10 -3 15 3 5 10 7
15 3 5 -3 7 -10 3 -15z m50 -7 c3 -5 -1 -9 -9 -9 -8 0 -12 4 -9 9 3 4 7 8 9 8
2 0 6 -4 9 -8z m-97 -17 c0 -7 -6 -12 -13 -12 -7 0 -15 5 -17 12 -3 6 3 11 12
11 10 0 18 -5 18 -11z"/>
<path d="M3935 3509 c-4 -6 -13 -8 -21 -5 -8 3 -11 0 -7 -9 3 -8 9 -12 14 -9
5 3 9 1 9 -4 0 -14 -29 -24 -43 -15 -7 4 -6 -1 2 -10 8 -10 11 -20 8 -23 -6
-6 32 -54 43 -54 4 0 7 7 7 15 0 9 -6 14 -14 11 -8 -3 -11 -1 -8 4 3 6 0 10
-7 10 -9 0 -9 3 2 10 12 8 13 12 2 19 -11 7 -11 9 1 14 11 4 14 -1 12 -19 -2
-17 2 -24 11 -20 8 3 11 -2 9 -15 -2 -10 1 -19 7 -19 7 0 3 -6 -7 -14 -18 -13
-18 -14 3 -25 12 -6 23 -9 23 -6 5 20 4 31 -3 41 -5 7 -8 16 -6 20 1 5 -5 23
-15 40 -9 18 -14 41 -12 53 4 23 0 27 -10 10z"/>
<path d="M4075 3499 c-4 -6 -5 -12 -2 -15 2 -3 7 2 10 11 7 17 1 20 -8 4z"/>
<path d="M4091 3487 c2 -1 13 -9 24 -17 19 -14 19 -14 6 3 -7 9 -18 17 -24 17
-6 0 -8 -1 -6 -3z"/>
<path d="M3976 3322 c-3 -5 1 -9 9 -9 8 0 12 4 9 9 -3 4 -7 8 -9 8 -2 0 -6 -4
-9 -8z"/>
<path d="M1955 3493 c13 -11 17 -63 5 -63 -6 0 -9 -5 -7 -12 1 -7 -3 -12 -10
-13 -23 0 -24 -14 -1 -27 40 -22 54 -18 53 16 -1 17 5 39 13 48 18 21 6 41
-19 33 -12 -4 -19 -2 -17 5 2 7 -4 15 -12 17 -9 3 -11 1 -5 -4z m45 -33 c-8
-5 -11 -10 -6 -10 5 0 3 -7 -4 -15 -6 -8 -8 -20 -4 -26 4 -8 3 -9 -4 -5 -7 4
-12 3 -12 -3 0 -5 5 -11 12 -13 7 -3 5 -7 -6 -11 -10 -4 -15 -3 -11 3 3 6 1
10 -5 10 -6 0 -2 14 10 30 12 17 19 30 15 30 -3 0 -3 5 0 10 3 6 12 10 18 10
7 0 6 -4 -3 -10z"/>
<path d="M1836 3477 c3 -10 9 -15 12 -12 3 3 0 11 -7 18 -10 9 -11 8 -5 -6z"/>
<path d="M1920 3460 c-9 -6 -10 -10 -3 -10 6 0 15 5 18 10 8 12 4 12 -15 0z"/>
<path d="M3667 2354 c-3 -3 -3 -13 0 -22 4 -10 2 -13 -5 -8 -6 3 -13 2 -17 -4
-4 -7 -13 -7 -28 1 -21 10 -21 9 -3 -5 10 -9 24 -12 30 -8 17 11 30 9 48 -6
14 -12 16 -12 14 4 -1 9 -10 22 -20 29 -13 10 -14 14 -4 18 7 3 8 6 2 6 -6 1
-13 -2 -17 -5z"/>
<path d="M3534 2278 c-12 -17 -11 -54 1 -50 6 1 10 11 10 22 0 10 5 23 9 27 5
5 6 2 1 -6 -5 -10 -4 -12 4 -7 12 8 6 26 -8 26 -5 0 -13 -6 -17 -12z"/>
<path d="M3621 2276 c-8 -10 -9 -16 -1 -21 5 -3 10 -5 11 -3 4 18 7 38 4 38
-1 0 -8 -6 -14 -14z"/>
<path d="M3660 2181 c0 -5 7 -12 16 -15 14 -5 15 -4 4 9 -14 17 -20 19 -20 6z"/>
<path d="M3717 2149 c7 -7 15 -10 18 -7 3 3 -2 9 -12 12 -14 6 -15 5 -6 -5z"/>
<path d="M3680 2146 c0 -2 7 -7 16 -10 8 -3 12 -2 9 4 -6 10 -25 14 -25 6z"/>
<path d="M2328 2243 c-14 -7 -17 -12 -9 -13 11 0 10 -4 -5 -16 -18 -14 -17
-14 6 -2 14 7 28 11 32 10 4 -1 5 6 2 16 -3 9 2 5 10 -9 17 -29 66 -65 66 -49
0 6 5 8 12 4 7 -5 3 5 -10 20 -12 16 -22 36 -22 44 0 13 -2 14 -12 3 -10 -11
-10 -14 0 -18 16 -6 15 -20 -2 -20 -8 0 -13 9 -11 23 2 26 -19 28 -57 7z"/>
<path d="M2325 2160 c-3 -5 4 -14 16 -20 15 -8 19 -9 15 -1 -4 6 -2 11 3 11 6
0 11 4 11 8 0 11 -38 13 -45 2z"/>
</g>
</svg>
