<?xml version="1.0" standalone="no"?>
<!DOCTYPE svg PUBLIC "-//W3C//DTD SVG 20010904//EN"
 "http://www.w3.org/TR/2001/REC-SVG-20010904/DTD/svg10.dtd">
<svg version="1.0" xmlns="http://www.w3.org/2000/svg"
 width="600.000000pt" height="600.000000pt" viewBox="0 0 600.000000 600.000000"
 preserveAspectRatio="xMidYMid meet">
<metadata>
Created by potrace 1.11, written by Peter Selinger 2001-2013
</metadata>
<g transform="translate(0.000000,600.000000) scale(0.100000,-0.100000)"
fill="#000000" stroke="none">
<path d="M1845 5719 c-4 -5 -12 -8 -18 -6 -7 2 -26 -2 -43 -9 -17 -7 -34 -10
-38 -7 -3 4 -6 0 -6 -7 0 -7 -3 -11 -6 -7 -7 7 -19 -2 -80 -59 -24 -23 -41
-44 -37 -48 3 -3 2 -6 -4 -6 -6 0 -14 -10 -18 -22 -11 -33 -12 -38 -15 -40 -6
-9 -11 -50 -10 -98 2 -78 2 -80 12 -80 4 0 8 -11 8 -25 0 -14 5 -25 10 -25 6
0 10 -8 10 -17 0 -10 7 -27 15 -37 8 -10 12 -23 9 -27 -3 -5 -1 -9 4 -9 5 0
20 -25 32 -55 12 -30 27 -52 32 -49 6 4 8 -2 3 -15 -4 -13 -2 -21 5 -21 6 0 8
-4 5 -10 -3 -5 0 -10 8 -10 9 0 13 -9 12 -24 -2 -14 3 -27 12 -30 8 -3 11 -10
8 -16 -3 -5 -1 -10 4 -10 6 0 11 -9 11 -20 0 -11 5 -20 10 -20 6 0 10 -9 10
-20 0 -11 4 -20 9 -20 5 0 12 -7 15 -16 4 -10 2 -13 -7 -9 -6 4 -4 0 5 -8 10
-8 15 -17 11 -20 -3 -4 -1 -7 5 -7 6 0 9 -7 6 -15 -4 -9 1 -18 11 -21 9 -4 14
-13 11 -20 -3 -8 -1 -14 4 -14 6 0 10 -6 10 -14 0 -8 7 -22 16 -30 8 -9 13
-16 9 -16 -3 0 3 -12 12 -27 14 -21 15 -26 3 -19 -13 7 -13 6 0 -6 24 -21 60
-97 49 -104 -5 -3 -9 -2 -8 3 1 4 -2 19 -7 32 -7 23 -8 24 -15 5 -7 -17 -8
-17 -8 4 -1 13 -4 21 -9 18 -4 -2 -16 2 -27 10 -14 10 -15 14 -4 15 8 0 4 4
-8 9 -13 5 -23 14 -23 20 0 5 -7 10 -16 10 -8 0 -13 3 -11 8 2 4 -6 17 -19 30
-13 12 -24 19 -24 15 0 -4 -8 4 -18 20 -10 15 -22 24 -25 20 -4 -3 -7 1 -7 10
0 9 -4 17 -10 17 -13 0 -50 37 -50 50 0 6 -5 10 -11 10 -14 0 -75 61 -72 72 2
4 -1 7 -6 5 -5 -1 -26 16 -48 38 -22 22 -49 46 -61 54 -11 8 -19 18 -16 23 3
4 -2 8 -10 8 -9 0 -16 7 -16 16 0 10 -5 14 -16 10 -8 -3 -13 -2 -10 2 3 5 -4
14 -14 22 -10 8 -17 17 -14 22 3 4 -2 8 -10 8 -8 0 -21 8 -28 19 -7 10 -17 20
-23 22 -5 2 -9 8 -7 13 2 5 -3 4 -11 -3 -12 -9 -16 -8 -21 5 -4 9 -9 14 -13
10 -3 -3 -17 1 -30 9 -13 9 -23 11 -23 5 0 -7 -6 -8 -17 -2 -10 4 -25 8 -33 7
-8 -1 -21 4 -29 9 -12 9 -13 8 -6 -3 6 -11 4 -13 -8 -8 -10 4 -17 1 -17 -6 0
-8 -4 -7 -10 3 -8 12 -10 12 -16 -4 -5 -12 -9 -14 -14 -6 -5 8 -11 7 -22 -4
-9 -8 -18 -12 -22 -9 -3 4 -6 1 -6 -6 0 -8 -7 -11 -15 -7 -9 3 -15 0 -15 -8 0
-14 -27 -31 -43 -27 -5 1 -6 -3 -2 -9 3 -5 -1 -13 -9 -16 -9 -3 -16 -12 -16
-20 0 -7 -8 -18 -17 -23 -10 -6 -15 -11 -10 -11 4 0 0 -11 -9 -25 -9 -14 -12
-25 -8 -25 5 0 2 -5 -6 -10 -12 -8 -12 -10 -1 -10 11 0 11 -3 1 -15 -7 -8 -9
-15 -4 -15 4 0 3 -5 -4 -12 -6 -6 -8 -18 -4 -27 5 -9 8 -35 8 -58 -1 -22 2
-39 7 -36 4 2 7 -5 7 -16 0 -12 4 -21 10 -21 5 0 9 -3 9 -7 -3 -20 2 -34 11
-28 5 3 10 -3 10 -15 0 -12 5 -18 10 -15 6 3 10 -1 10 -10 0 -9 4 -13 10 -10
6 3 10 2 10 -4 0 -14 47 -60 54 -53 6 5 10 -14 7 -31 -1 -5 3 -5 10 -2 12 8
51 -29 42 -39 -4 -3 0 -6 8 -6 8 0 20 -9 27 -20 7 -12 18 -18 24 -14 6 4 8 3
5 -3 -4 -6 0 -14 9 -17 8 -3 12 -10 9 -16 -3 -5 0 -10 7 -10 7 0 21 -11 32
-24 10 -14 24 -22 32 -19 10 4 12 0 8 -11 -3 -9 -1 -16 6 -16 6 0 8 -4 5 -10
-3 -5 0 -7 9 -4 9 3 17 -2 21 -15 3 -12 10 -21 14 -21 4 0 16 -7 27 -16 10 -8
12 -12 4 -8 -8 4 -5 -3 7 -15 12 -11 24 -21 27 -21 2 0 23 -18 45 -40 22 -22
45 -40 51 -40 6 0 8 -4 5 -10 -3 -5 -1 -10 5 -10 6 0 8 -5 5 -10 -4 -6 -1 -9
7 -8 7 2 12 -5 12 -14 -1 -10 2 -15 7 -12 12 7 80 -57 72 -69 -3 -6 -1 -7 5
-3 7 4 12 2 12 -4 0 -7 7 -9 17 -6 10 4 14 4 10 0 -4 -4 1 -13 11 -21 16 -12
16 -13 -3 -7 -11 3 -7 -2 10 -12 36 -21 55 -39 55 -54 0 -6 4 -9 9 -6 11 7 53
-38 44 -47 -3 -4 1 -7 10 -7 9 0 19 -5 23 -12 4 -7 3 -8 -4 -4 -7 4 -12 3 -12
-1 0 -5 -18 -8 -40 -8 -22 0 -40 -2 -40 -5 0 -4 -15 -6 -32 -5 -18 0 -36 -4
-40 -10 -5 -6 -12 -5 -18 5 -5 8 -10 10 -10 4 0 -5 -15 -10 -32 -9 -18 1 -37
-1 -43 -4 -13 -7 -37 -10 -182 -23 -7 -1 -15 -8 -17 -15 -3 -8 -10 -11 -16 -8
-5 3 -10 1 -10 -5 0 -6 -11 -15 -25 -22 -13 -6 -23 -14 -20 -18 2 -3 -4 -12
-15 -20 -10 -7 -16 -20 -12 -28 3 -10 1 -13 -6 -8 -7 4 -10 -1 -7 -14 2 -11 1
-20 -3 -20 -11 0 -4 -90 8 -105 8 -10 7 -14 -2 -18 -8 -4 -7 -6 5 -6 9 -1 16
-4 15 -8 -4 -16 23 -53 39 -53 9 0 13 -3 10 -6 -7 -7 9 -24 57 -59 14 -11 26
-25 26 -32 0 -7 3 -12 8 -12 18 3 33 -2 28 -9 -3 -5 4 -16 15 -25 10 -9 19
-14 19 -11 0 3 7 -1 15 -10 8 -8 15 -19 15 -25 0 -6 4 -10 9 -9 5 2 20 -9 34
-24 14 -15 27 -25 30 -22 2 3 8 -3 11 -13 4 -9 4 -14 0 -11 -4 4 -16 3 -27 -3
-14 -8 -18 -8 -13 0 5 7 1 9 -8 5 -9 -3 -16 -11 -17 -18 0 -6 -4 -2 -9 9 -7
15 -9 16 -9 4 -1 -12 -9 -15 -28 -13 -15 1 -35 -2 -45 -7 -13 -7 -18 -6 -18 3
0 9 -2 10 -8 1 -4 -6 -25 -12 -47 -14 -22 -1 -46 -8 -54 -13 -12 -9 -13 -8 -6
3 6 10 4 12 -5 6 -11 -7 -39 -12 -100 -18 -14 -1 -31 -6 -39 -11 -11 -7 -12
-6 -6 5 7 11 6 12 -6 3 -8 -6 -22 -10 -31 -9 -10 2 -18 -1 -18 -7 0 -6 -6 -5
-15 2 -12 10 -15 10 -15 0 0 -7 -7 -10 -17 -6 -9 4 -20 1 -25 -6 -8 -10 -11
-10 -15 -1 -3 10 -10 10 -25 2 -11 -6 -29 -9 -39 -6 -10 3 -19 1 -19 -4 0 -5
-3 -8 -7 -8 -5 1 -12 0 -18 -1 -25 -6 -41 -4 -47 5 -5 6 -8 6 -8 -2 0 -6 -9
-10 -20 -8 -11 2 -20 0 -20 -5 0 -6 -10 -6 -26 0 -14 6 -23 6 -20 1 3 -5 -3
-11 -14 -14 -13 -3 -18 -1 -13 6 5 9 3 9 -8 1 -8 -6 -29 -10 -47 -9 -17 0 -32
-3 -32 -7 0 -4 -5 -8 -11 -8 -5 0 -7 6 -3 13 6 9 5 9 -8 0 -8 -7 -18 -10 -21
-6 -4 3 -7 0 -7 -8 0 -11 -2 -11 -10 1 -5 8 -10 10 -10 4 0 -6 -16 -10 -35 -9
-19 0 -35 -2 -35 -5 0 -4 -6 -7 -12 -7 -30 -1 -71 -13 -83 -23 -8 -7 -19 -9
-25 -5 -5 3 -10 -1 -10 -9 0 -9 -5 -16 -11 -16 -7 0 -24 -13 -40 -29 -15 -16
-31 -26 -35 -23 -4 4 -4 2 -1 -5 4 -6 1 -18 -7 -26 -8 -8 -12 -17 -9 -21 4 -3
2 -6 -4 -6 -11 0 -25 -49 -26 -92 -1 -16 -5 -28 -10 -28 -5 0 -4 -7 3 -15 10
-12 10 -15 -1 -15 -9 0 -10 -3 -3 -8 6 -4 10 -17 9 -29 -1 -13 2 -23 7 -23 5
0 7 -4 3 -9 -3 -5 -1 -12 5 -16 6 -4 8 -10 5 -15 -3 -5 3 -18 15 -30 11 -11
18 -20 15 -20 -3 0 3 -10 15 -22 11 -12 20 -26 20 -30 0 -5 5 -6 10 -3 6 3 10
1 10 -4 0 -6 7 -11 16 -11 8 0 12 -4 9 -10 -6 -9 7 -14 21 -7 3 1 10 -6 16
-17 7 -13 12 -15 18 -6 5 8 11 7 23 -4 10 -11 18 -12 22 -6 4 7 11 7 18 2 17
-13 57 -22 57 -12 0 4 12 6 27 4 15 -1 36 2 46 8 15 8 18 7 11 -4 -6 -10 -5
-11 7 -2 8 6 24 10 37 9 13 -1 25 2 28 6 2 5 11 6 18 3 8 -3 17 -1 21 5 4 8
12 8 25 1 12 -6 21 -7 25 0 3 5 12 7 20 3 8 -3 15 0 15 7 0 10 3 10 15 0 9 -7
15 -8 15 -2 0 6 8 9 18 7 9 -1 23 3 31 9 12 9 13 8 6 -3 -6 -11 -5 -12 6 -5 8
4 23 9 34 11 11 1 40 5 65 8 25 3 55 5 68 5 13 0 21 4 18 8 -3 5 12 7 32 5 20
-1 46 4 59 12 20 14 22 13 16 -1 -5 -14 -3 -15 16 -5 12 7 26 9 31 6 6 -3 10
0 10 7 0 9 3 9 10 -2 7 -12 10 -12 10 -1 0 7 6 11 15 7 8 -3 15 0 15 6 0 7 7
3 16 -8 8 -10 13 -13 9 -6 -3 6 -3 12 2 13 54 7 63 5 52 -8 -7 -7 -14 -11 -17
-9 -3 3 -18 -4 -35 -16 -17 -12 -27 -17 -23 -10 4 7 2 12 -3 12 -6 0 -11 -5
-11 -10 0 -6 -8 -14 -17 -17 -10 -4 -24 -14 -31 -22 -8 -9 -10 -10 -7 -3 6 11
3 11 -16 0 -13 -7 -26 -15 -29 -18 -3 -3 -14 -12 -24 -20 -18 -13 -19 -13 -11
0 4 8 -4 4 -20 -10 -16 -14 -25 -18 -21 -10 4 8 -2 4 -14 -10 -12 -14 -18 -18
-14 -10 6 12 5 13 -8 3 -8 -7 -18 -10 -21 -6 -4 3 -7 -1 -7 -10 0 -9 -3 -16
-7 -16 -23 4 -43 -2 -38 -11 3 -5 -3 -10 -14 -10 -12 0 -21 -5 -21 -11 0 -6
-7 -9 -15 -5 -8 3 -15 1 -15 -4 0 -5 -11 -12 -25 -16 -14 -3 -25 -10 -25 -15
0 -5 -9 -9 -21 -9 -13 0 -18 -4 -13 -12 5 -8 2 -9 -9 -5 -10 4 -17 2 -17 -4 0
-6 -7 -8 -16 -5 -8 3 -12 2 -9 -4 3 -6 2 -10 -4 -10 -5 0 -17 -7 -25 -16 -12
-12 -16 -12 -16 -2 0 8 -5 6 -11 -5 -6 -9 -14 -15 -20 -12 -5 4 -9 1 -9 -4 0
-6 -7 -11 -16 -11 -22 0 -65 -35 -56 -46 4 -5 -1 -2 -11 6 -16 11 -18 11 -15
-1 2 -8 -3 -13 -9 -12 -7 2 -13 -2 -13 -8 0 -5 -4 -7 -10 -4 -6 3 -7 -1 -4 -9
6 -15 -6 -21 -29 -17 -5 1 -6 -3 -2 -9 3 -6 -1 -17 -9 -26 -9 -8 -16 -22 -16
-30 0 -8 -4 -13 -9 -10 -5 4 -7 -4 -3 -16 4 -15 2 -19 -7 -13 -10 5 -11 2 -6
-14 4 -13 2 -21 -6 -21 -8 0 -8 -5 2 -17 8 -9 9 -14 2 -10 -13 8 -13 -59 0
-80 5 -8 3 -13 -4 -13 -7 0 -5 -8 6 -20 14 -15 15 -20 4 -20 -12 -1 -11 -3 1
-13 8 -7 16 -19 18 -27 2 -8 8 -16 13 -18 5 -2 9 -10 9 -18 0 -7 9 -19 20 -26
11 -7 20 -17 20 -23 0 -6 9 -16 21 -23 17 -11 20 -11 14 0 -4 7 3 2 15 -12 12
-14 19 -19 15 -11 -5 9 -1 9 17 -3 14 -9 28 -13 31 -9 4 3 7 1 7 -5 0 -7 10
-12 23 -11 12 0 37 -1 55 -3 18 -3 32 0 32 6 0 6 5 4 10 -4 6 -9 10 -11 10 -3
0 7 6 10 14 7 8 -3 17 0 21 5 3 6 11 9 16 6 5 -4 9 -1 9 5 0 6 4 9 9 6 5 -4
12 0 14 6 4 10 6 10 6 0 1 -10 4 -10 15 0 8 7 11 17 8 22 -3 5 0 6 7 2 7 -5
21 0 33 11 12 10 18 12 14 6 -5 -9 -2 -11 8 -7 9 3 14 9 12 13 -2 3 11 13 30
22 19 9 31 11 28 5 -3 -6 2 -2 10 8 9 11 16 16 16 10 0 -5 3 -5 8 1 4 6 16 17
26 25 18 13 19 13 12 0 -4 -8 2 -4 13 9 13 14 21 18 21 10 1 -9 6 -7 16 6 8
11 17 19 19 18 12 -7 26 -2 21 6 -7 11 23 25 43 22 8 -2 20 5 27 14 7 9 15 16
18 16 21 -3 26 1 20 12 -5 7 -1 7 12 -3 10 -8 16 -11 12 -6 -12 14 15 35 30
23 7 -6 12 -6 10 -1 -2 5 0 10 5 11 4 2 17 12 29 23 12 11 28 20 35 20 7 0 13
5 13 11 0 5 4 8 9 5 9 -6 61 15 61 26 0 3 14 9 30 13 18 4 27 11 24 17 -5 7 0
9 14 6 12 -4 20 -3 17 2 -5 8 16 20 42 26 7 1 20 9 28 18 9 8 23 12 32 9 11
-4 14 -3 9 5 -4 7 -2 13 3 13 6 1 16 2 21 3 6 0 15 8 20 16 5 8 10 11 10 7 0
-5 10 -1 21 7 12 8 29 12 38 8 14 -5 14 -4 1 13 -14 17 -14 18 9 6 13 -7 21
-8 17 -3 -10 16 14 26 27 12 9 -10 9 -14 -1 -17 -6 -3 -10 -9 -7 -14 3 -5 1
-18 -6 -30 -9 -17 -8 -20 3 -13 11 7 11 5 0 -9 -8 -9 -11 -20 -8 -25 3 -5 -1
-18 -8 -28 -10 -13 -11 -23 -4 -31 6 -7 6 -13 1 -13 -5 0 -10 -10 -11 -22 -1
-13 -4 -32 -6 -43 -3 -11 -5 -30 -5 -43 -1 -13 -4 -21 -9 -18 -4 2 -7 -11 -6
-30 1 -19 -1 -36 -5 -39 -4 -2 -6 -26 -4 -52 2 -26 4 -56 4 -65 0 -10 5 -18
10 -18 6 0 8 -3 5 -8 -2 -4 11 -24 29 -45 68 -76 161 -92 253 -44 17 10 32 15
32 12 0 -4 7 1 16 9 8 9 22 16 30 16 8 0 14 3 14 8 0 9 71 48 82 45 4 -2 8 2
8 8 0 10 58 35 73 31 5 -1 6 2 2 8 -3 5 1 10 9 10 9 0 16 5 16 11 0 6 7 9 15
5 9 -3 15 0 15 9 0 8 6 12 14 9 14 -5 19 -44 6 -44 -3 0 -7 -10 -8 -22 -4 -46
-10 -93 -12 -98 -1 -3 -3 -9 -5 -15 -1 -5 -3 -12 -4 -15 -2 -3 -4 -23 -6 -45
-1 -22 -4 -40 -5 -40 -1 0 -3 -11 -5 -25 -2 -14 -6 -36 -9 -50 -7 -29 -19
-109 -19 -127 0 -7 -3 -13 -6 -13 -3 0 -7 -12 -7 -28 -1 -15 -5 -47 -10 -72
-4 -25 -8 -55 -8 -67 -1 -13 -4 -23 -7 -23 -3 0 -6 -6 -6 -12 -1 -14 -11 -80
-18 -118 -4 -21 -11 -58 -31 -175 -2 -11 -6 -33 -10 -50 -4 -16 -7 -63 -7
-102 1 -114 50 -201 146 -257 23 -14 56 -28 72 -32 53 -11 139 -10 166 3 15 7
29 10 31 7 3 -2 11 2 18 11 7 8 17 15 23 15 19 0 89 83 111 130 21 48 24 57
30 105 8 57 23 140 26 140 1 0 3 14 5 30 2 17 6 41 8 55 3 14 15 79 26 145 12
66 23 131 26 145 7 34 18 112 18 128 0 6 4 12 8 12 4 0 6 14 5 31 -1 16 1 32
5 34 3 3 5 18 4 35 -1 17 1 32 5 35 3 2 7 -1 8 -8 3 -34 9 -64 16 -75 4 -7 5
-12 1 -12 -3 0 -1 -9 5 -20 8 -15 8 -20 -1 -20 -8 0 -8 -4 -1 -13 5 -6 14 -39
18 -72 9 -65 10 -74 14 -77 1 -2 4 -16 6 -33 2 -16 6 -41 8 -55 6 -30 18 -99
20 -120 1 -9 6 -21 10 -28 4 -7 6 -16 3 -18 -2 -3 0 -24 5 -47 5 -23 11 -53
13 -67 16 -111 43 -222 57 -231 7 -5 9 -9 5 -9 -21 0 68 -110 89 -110 6 0 17
-6 23 -13 22 -28 181 -58 181 -35 0 5 6 5 16 0 29 -16 184 72 184 104 0 8 5
14 10 14 10 0 33 44 34 65 1 6 7 16 14 24 10 10 11 16 2 21 -8 5 -9 10 -2 14
16 10 -1 207 -18 214 -4 2 -6 12 -3 23 3 10 0 26 -7 34 -7 9 -8 15 -2 15 5 0
8 9 5 20 -3 11 -8 20 -12 20 -3 0 -6 15 -7 33 0 17 -5 52 -9 77 -4 25 -8 53
-9 63 0 9 -3 17 -6 17 -3 0 -6 12 -7 27 -2 26 -4 42 -19 128 -3 17 -6 40 -7
53 -1 12 -5 22 -8 22 -3 0 -5 10 -4 22 1 13 -2 33 -6 46 -5 13 -11 45 -13 72
-2 26 -7 53 -10 59 -4 6 -4 11 1 11 4 0 1 5 -7 10 -11 7 -11 10 -2 10 9 0 10
5 3 19 -6 10 -7 21 -4 25 3 3 2 6 -3 6 -5 0 -10 15 -11 33 -1 37 -10 77 -18
85 -2 3 0 11 6 18 7 8 7 14 -1 19 -5 3 -10 13 -10 22 0 12 8 10 43 -10 23 -14
74 -42 112 -62 39 -21 99 -54 135 -75 70 -40 92 -49 130 -57 13 -2 26 -6 28
-7 6 -7 88 15 119 31 30 16 84 88 90 121 5 26 4 84 -2 112 -3 14 -8 36 -10 50
-5 33 -14 76 -25 124 -5 22 -7 44 -4 48 3 4 0 8 -6 8 -8 0 -11 14 -8 39 2 22
0 37 -3 35 -6 -3 -18 29 -19 48 0 12 45 -4 58 -21 7 -9 14 -14 15 -12 3 8 87
-32 87 -42 0 -4 4 -5 10 -2 6 3 10 1 10 -5 0 -6 4 -9 9 -6 5 4 11 3 13 -1 4
-11 90 -53 106 -53 7 0 11 -3 8 -8 -2 -4 16 -16 40 -26 24 -10 44 -22 44 -27
0 -4 7 -6 15 -3 8 4 15 1 15 -5 0 -6 7 -11 15 -11 8 0 15 -5 15 -12 0 -6 3 -8
7 -5 3 4 12 2 20 -4 7 -6 13 -8 13 -3 0 4 6 0 13 -9 6 -10 23 -19 36 -22 14
-2 27 -8 30 -13 3 -5 35 -23 71 -41 36 -18 68 -38 72 -45 4 -6 8 -7 8 -3 0 8
47 -15 79 -37 7 -6 20 -11 29 -13 9 -1 22 -10 29 -19 7 -10 13 -14 13 -10 0 5
7 3 15 -4 8 -7 15 -9 15 -4 0 5 4 4 8 -2 4 -6 34 -24 67 -39 47 -23 77 -29
137 -32 43 -1 80 2 83 7 3 5 12 7 20 3 8 -3 15 -1 15 5 0 5 11 13 24 16 28 7
119 92 124 116 2 8 9 18 15 22 7 4 9 8 6 8 -4 0 -1 16 6 36 14 42 12 159 -4
178 -6 7 -8 16 -4 19 3 4 1 7 -6 7 -7 0 -10 4 -7 9 3 5 -5 20 -19 35 -13 14
-22 26 -19 26 8 0 -16 22 -57 53 -20 15 -39 24 -42 20 -4 -3 -7 -1 -7 5 0 7
-7 12 -15 12 -8 0 -15 4 -15 10 0 5 -3 9 -7 8 -8 -2 -64 23 -73 32 -3 3 -18
12 -35 20 -16 8 -33 19 -37 25 -4 5 -8 6 -8 2 0 -9 -91 42 -101 56 -3 5 -10 8
-15 8 -5 -1 -34 12 -64 28 -30 16 -59 29 -64 29 -5 0 -12 4 -15 9 -5 7 -50 32
-176 97 -22 12 -41 24 -43 29 -2 4 -12 7 -23 7 -10 0 -19 4 -19 10 0 5 15 7
33 4 17 -3 48 -7 67 -10 19 -3 53 -7 75 -9 22 -2 40 -4 40 -5 0 -3 29 -7 77
-12 21 -1 38 -5 38 -8 0 -3 25 -6 57 -7 31 -2 62 -8 69 -13 8 -8 14 -8 19 0 4
7 11 8 18 2 7 -5 20 -8 30 -7 9 2 17 0 17 -4 0 -4 14 -6 30 -3 17 2 30 0 30
-4 0 -5 15 -9 33 -10 63 0 112 -8 126 -18 12 -9 13 -8 6 3 -6 11 -5 12 6 5 18
-12 159 -13 159 -2 0 5 4 7 8 4 14 -8 90 31 121 63 16 16 32 27 35 24 3 -4 6
-1 6 6 0 7 10 26 21 43 12 16 23 42 24 56 1 15 5 34 8 42 3 8 6 23 6 33 1 9 1
23 2 30 1 16 -9 61 -21 92 -5 14 -7 25 -4 25 2 0 0 6 -6 13 -38 45 -50 61 -50
69 0 4 -6 8 -13 8 -7 0 -19 9 -27 20 -8 11 -22 20 -32 20 -10 0 -18 5 -18 12
0 6 -3 8 -7 5 -3 -4 -12 -2 -19 4 -8 6 -20 9 -28 6 -8 -3 -16 -2 -18 3 -2 5
-22 10 -45 11 -24 2 -43 8 -43 13 0 6 -4 5 -9 -3 -5 -7 -11 -9 -14 -4 -3 5
-27 10 -53 12 -26 1 -55 6 -64 11 -11 6 -21 5 -28 -2 -8 -8 -12 -8 -12 -1 0 6
-11 11 -25 12 -14 1 -38 2 -55 3 -16 1 -30 6 -30 12 0 6 -5 4 -10 -4 -5 -8
-10 -10 -10 -5 0 6 -20 11 -44 13 -25 1 -56 6 -69 11 -16 6 -28 6 -36 -2 -7
-7 -11 -7 -11 -1 0 6 -12 12 -27 13 -59 4 -78 7 -90 14 -8 5 -13 3 -13 -5 0
-9 -2 -10 -8 -2 -4 7 -34 15 -67 18 -33 4 -76 9 -95 11 -19 2 -35 4 -35 6 0 1
-13 3 -30 4 -16 2 -30 4 -30 5 0 1 -14 3 -30 5 -56 6 -97 13 -103 19 -3 3 -11
1 -19 -5 -10 -9 -13 -8 -13 0 0 7 -5 9 -12 5 -14 -8 10 26 25 37 11 8 203 187
261 244 23 21 40 43 39 47 -2 4 2 8 8 8 5 0 7 5 4 10 -3 6 -2 10 2 10 25 0 20
130 -8 179 -23 42 -88 92 -123 96 -12 1 -21 3 -21 5 0 2 -31 5 -105 10 -25 2
-53 7 -64 13 -14 7 -16 6 -11 -4 6 -9 4 -10 -6 -3 -8 5 -25 10 -39 10 -14 1
-25 3 -25 4 0 1 -27 3 -60 5 -33 2 -62 4 -65 5 -3 1 -9 2 -13 1 -5 -1 0 10 10
23 10 14 24 26 31 26 7 0 11 3 9 8 -4 9 40 52 47 44 3 -3 6 2 6 11 0 9 7 17
15 17 8 0 15 8 15 17 0 9 3 13 6 10 4 -3 15 5 26 18 11 14 27 25 36 25 15 0
15 2 2 10 -9 6 -10 10 -3 10 7 0 24 12 40 28 15 15 32 27 38 27 5 0 10 5 10
10 0 6 37 46 83 90 46 44 121 117 168 163 46 45 89 82 95 82 5 0 8 3 6 8 -4 9
70 81 78 74 3 -3 5 3 5 13 0 10 3 16 6 13 11 -11 114 106 114 129 0 7 4 13 9
13 10 0 25 67 26 113 0 15 3 27 8 27 4 0 5 6 0 13 -8 13 -11 27 -15 65 -1 12
-6 22 -10 22 -3 0 -12 16 -19 34 -7 19 -16 33 -21 30 -4 -3 -8 0 -8 6 0 25
-111 107 -130 95 -4 -3 -10 0 -12 6 -5 14 -148 19 -148 5 0 -6 -5 -4 -10 4 -7
12 -10 12 -10 1 0 -7 -6 -11 -15 -7 -8 3 -15 2 -15 -3 0 -5 -13 -14 -29 -21
-16 -6 -50 -31 -76 -56 -26 -24 -52 -44 -57 -44 -5 0 -7 -3 -5 -7 2 -5 -9 -20
-24 -35 -16 -15 -29 -25 -29 -23 0 2 -58 -54 -130 -125 -71 -71 -130 -126
-130 -122 0 3 -11 -9 -25 -28 -14 -19 -25 -30 -25 -24 0 5 -5 1 -11 -8 -5 -10
-16 -18 -24 -18 -9 0 -12 -6 -8 -15 3 -10 0 -15 -8 -13 -8 2 -13 -3 -11 -9 1
-7 -7 -13 -18 -13 -11 0 -19 -3 -18 -8 4 -11 -71 -82 -85 -81 -8 0 -8 2 1 6 6
2 10 9 6 14 -3 5 0 8 8 7 7 -2 12 3 10 10 -1 6 3 12 9 12 5 0 8 4 5 9 -3 5 1
14 9 21 8 7 15 21 15 31 0 11 4 19 8 19 5 0 9 6 10 13 3 33 10 51 27 63 10 8
15 14 11 14 -5 0 -3 7 4 15 6 8 9 19 5 25 -3 5 2 10 12 10 15 0 16 2 3 10 -10
6 -11 10 -2 10 6 0 12 7 12 15 0 8 3 15 8 15 4 0 12 11 19 25 8 19 8 24 0 19
-7 -3 -5 0 4 8 17 14 17 15 26 48 3 11 10 20 15 20 5 0 6 5 3 10 -3 6 -1 10 5
10 6 0 8 5 5 10 -3 6 -1 10 5 10 6 0 9 4 6 9 -3 5 0 14 8 20 8 7 17 27 20 47
4 19 11 32 17 29 8 -5 14 15 10 38 0 4 4 7 10 7 5 0 7 5 4 10 -3 6 -1 10 4 10
6 0 11 7 11 16 0 9 8 23 18 31 11 10 12 12 2 8 -12 -5 -12 -4 1 7 9 7 14 19
12 26 -3 6 1 12 8 12 7 0 10 3 7 6 -4 3 0 21 8 40 8 19 11 34 8 34 -4 0 -2 6
4 13 6 7 7 18 3 26 -5 8 -5 26 -1 42 5 16 4 29 -1 31 -5 2 -10 19 -11 40 -2
20 -6 34 -10 31 -5 -2 -8 1 -8 7 0 21 -116 141 -135 140 -21 -1 -25 1 -21 9 3
5 -8 8 -24 7 -17 -1 -30 1 -30 6 0 4 -7 4 -17 1 -12 -5 -14 -3 -8 7 6 9 4 11
-6 5 -7 -5 -36 -10 -64 -12 -52 -3 -91 -17 -113 -43 -10 -11 -12 -12 -6 -1 5
9 -2 7 -18 -5 -14 -10 -24 -22 -21 -26 2 -5 -3 -8 -12 -8 -8 0 -21 -11 -27
-25 -6 -14 -15 -25 -20 -25 -4 0 -8 -3 -7 -7 2 -16 -14 -53 -23 -53 -5 0 -6
-4 -3 -10 3 -5 1 -10 -5 -10 -6 0 -8 -4 -5 -10 3 -5 1 -10 -5 -10 -6 0 -8 -5
-5 -10 3 -6 0 -13 -9 -16 -9 -3 -12 -12 -9 -21 4 -10 2 -14 -4 -10 -7 4 -10 0
-8 -10 1 -10 -7 -26 -19 -36 -11 -10 -16 -16 -9 -12 16 8 -28 -77 -45 -88 -9
-6 -10 -12 -2 -21 7 -10 6 -17 -7 -27 -17 -13 -17 -13 -3 6 14 19 14 19 -3 6
-13 -10 -15 -17 -6 -27 9 -11 8 -14 -5 -14 -10 0 -15 -4 -12 -8 3 -5 -4 -23
-15 -41 -11 -18 -16 -37 -13 -43 4 -7 2 -8 -4 -4 -7 4 -12 2 -12 -5 0 -7 -8
-21 -17 -32 -10 -11 -12 -17 -5 -13 6 4 12 2 12 -3 0 -6 -4 -11 -9 -11 -5 0
-15 -16 -22 -35 -7 -19 -17 -35 -23 -35 -5 0 -6 -3 -3 -6 4 -4 -4 -21 -16 -38
-12 -17 -21 -32 -19 -33 7 -8 0 -23 -8 -18 -6 3 -7 -1 -4 -9 3 -9 1 -16 -6
-16 -6 0 -9 -4 -5 -9 3 -5 1 -12 -5 -16 -6 -4 -8 -11 -5 -16 4 -5 1 -9 -4 -9
-6 0 -11 -8 -11 -17 0 -9 -7 -24 -16 -34 -8 -9 -16 -26 -17 -37 0 -11 -5 -18
-9 -16 -4 3 -9 0 -9 -5 -1 -6 -2 -17 -3 -23 -1 -7 -7 -12 -14 -11 -6 2 -9 -4
-6 -12 4 -8 1 -15 -7 -15 -7 0 -9 -3 -6 -6 3 -4 1 -16 -5 -28 -7 -11 -12 -24
-13 -28 0 -4 -5 -12 -12 -19 -10 -10 -18 -1 -37 41 -14 30 -22 58 -19 63 3 6
1 7 -5 3 -11 -6 -16 6 -13 27 0 4 -3 7 -9 7 -5 0 -10 9 -10 20 0 11 -4 20 -10
20 -5 0 -10 7 -10 15 0 8 -11 34 -24 57 -13 24 -26 52 -28 63 -1 11 -7 25 -13
32 -5 7 -16 19 -23 28 -7 8 -10 15 -6 15 15 0 -45 47 -82 65 -40 19 -112 26
-121 13 -2 -5 -8 -6 -13 -3 -5 3 -11 1 -15 -5 -4 -6 -10 -8 -15 -5 -9 6 -88
-65 -89 -80 -1 -5 -9 -19 -18 -30 -9 -11 -16 -22 -15 -25 4 -8 -42 -110 -50
-110 -4 0 -5 -7 -2 -15 4 -8 1 -15 -5 -15 -6 0 -11 -3 -10 -7 2 -16 -14 -53
-23 -53 -5 0 -7 -4 -3 -9 3 -5 1 -12 -5 -16 -6 -4 -8 -11 -5 -16 4 -5 1 -9 -6
-9 -7 0 -9 -3 -6 -6 4 -4 -1 -19 -10 -35 l-17 -28 -18 30 c-10 16 -19 41 -20
54 -1 13 -5 22 -8 20 -3 -2 -12 5 -19 17 -10 16 -10 19 1 13 7 -4 2 3 -12 15
-14 12 -19 19 -12 15 6 -3 12 -1 12 4 0 6 -4 11 -10 11 -5 0 -10 9 -10 21 0
11 -4 17 -10 14 -9 -5 -15 15 -11 38 0 4 -3 7 -8 7 -5 0 -12 11 -15 25 -4 14
-11 23 -15 20 -5 -3 -7 4 -4 15 3 11 1 20 -5 20 -10 0 -23 26 -21 44 0 5 -4
12 -10 16 -6 3 -14 17 -16 31 -3 13 -9 25 -15 27 -5 2 -10 9 -10 16 0 18 -24
66 -33 66 -5 0 -5 5 -2 10 3 6 1 10 -5 10 -6 0 -8 5 -5 10 3 6 1 10 -5 10 -6
0 -9 4 -5 9 3 5 1 12 -5 16 -6 4 -8 10 -5 15 3 4 -2 11 -11 14 -8 3 -13 10 -9
15 3 5 0 13 -6 16 -5 4 -8 13 -5 21 3 8 -1 14 -10 14 -8 0 -12 5 -9 10 3 6 2
10 -3 10 -5 0 -9 7 -10 15 -1 8 -3 22 -4 30 -1 8 -5 12 -9 9 -4 -2 -13 12 -19
31 -6 19 -15 35 -20 35 -4 0 -7 11 -6 25 2 13 -2 23 -8 22 -6 -1 -10 6 -8 16
2 9 -3 17 -12 17 -8 0 -13 8 -12 17 2 10 -3 24 -11 31 -7 8 -11 17 -9 21 3 4
-4 14 -15 21 -10 8 -19 18 -19 23 0 14 -47 67 -54 60 -3 -4 -6 1 -6 11 0 9 -4
15 -9 11 -5 -3 -16 2 -25 10 -16 16 -37 24 -93 32 -18 3 -30 10 -27 15 4 6 -2
5 -14 -1 -26 -14 -35 -14 -27 -1 3 6 4 10 1 10 -3 0 -8 -5 -11 -11z m1146
-1406 c10 -12 10 -15 1 -9 -8 5 -11 3 -10 -5 2 -7 -6 -14 -17 -16 -12 -3 -16
-1 -9 4 6 4 10 16 8 26 -3 22 10 22 27 0z m17 -30 c-2 -10 18 -61 38 -95 8
-16 12 -28 8 -28 -4 0 1 -9 11 -20 22 -24 27 -47 14 -56 -5 -3 -9 -10 -9 -16
0 -7 4 -7 13 1 11 8 13 6 12 -9 -1 -11 -5 -23 -10 -27 -4 -5 -5 -2 -1 5 4 6 5
12 2 12 -2 0 -13 3 -23 7 -17 7 -17 6 -1 -19 l17 -26 -30 3 c-16 2 -28 1 -25
-3 3 -5 0 -14 -5 -22 -7 -11 -8 -8 -5 10 2 18 9 24 24 23 15 -2 20 2 16 12 -7
18 -18 19 -45 3 -17 -11 -22 -10 -33 5 -16 21 -26 22 -26 2 0 -8 5 -15 10 -15
6 0 10 -4 10 -10 0 -19 -19 -10 -26 12 -4 13 -1 25 7 32 8 6 16 20 17 30 3 16
1 18 -11 8 -7 -6 -18 -8 -22 -4 -5 4 -6 0 -2 -9 6 -19 -18 -59 -36 -59 -7 0
-4 5 5 11 19 10 13 43 -6 33 -6 -3 0 4 13 15 14 13 18 21 10 21 -19 -1 -50
-25 -42 -33 3 -4 1 -7 -5 -7 -18 0 -14 18 6 29 12 7 13 10 3 11 -11 0 -11 4 2
18 10 10 14 22 10 27 -5 4 -2 5 5 1 6 -4 12 -3 12 1 0 5 -6 15 -12 22 -7 8 -8
11 -3 9 14 -8 32 14 29 35 -1 10 4 21 12 24 8 3 11 9 8 14 -3 5 4 9 15 9 11 0
23 5 26 10 7 12 26 14 23 3z m-111 -229 c-3 -3 -12 -4 -19 -1 -8 3 -5 6 6 6
11 1 17 -2 13 -5z m39 -36 c4 -7 3 -8 -4 -4 -7 4 -12 0 -12 -10 0 -10 -3 -15
-6 -11 -7 6 2 37 10 37 3 0 8 -5 12 -12z m24 -22 c0 -2 -7 -7 -16 -10 -8 -3
-12 -2 -9 4 6 10 25 14 25 6z m49 -49 c8 -10 7 -14 -2 -14 -8 0 -14 6 -14 14
0 7 1 13 2 13 2 0 8 -6 14 -13z m-59 -7 c0 -5 -2 -10 -4 -10 -3 0 -8 5 -11 10
-3 6 -1 10 4 10 6 0 11 -4 11 -10z m933 -407 c3 -5 28 -8 56 -7 29 1 54 -3 58
-9 3 -5 8 -5 12 2 11 17 51 -16 45 -37 -5 -14 -4 -14 4 -2 7 9 8 18 1 26 -7 8
-6 14 1 19 5 3 10 2 10 -3 0 -6 15 -9 34 -8 24 1 32 -2 28 -12 -2 -7 -11 -11
-18 -8 -8 3 -13 2 -13 -2 3 -18 -2 -32 -12 -32 -5 0 -7 6 -3 13 4 7 3 9 -2 4
-5 -5 -10 -13 -10 -18 -3 -22 -5 -23 -14 -9 -8 12 -10 11 -10 -7 0 -13 -4 -23
-9 -23 -9 0 -24 26 -25 45 -1 6 -7 11 -13 11 -26 3 -28 5 -13 14 9 6 10 10 3
10 -7 0 -17 -9 -23 -20 -8 -15 -8 -18 3 -14 7 2 22 -4 32 -16 22 -24 14 -38
-8 -15 -17 16 -32 21 -23 6 3 -5 -2 -15 -11 -22 -15 -12 -16 -12 -10 5 5 11 1
29 -9 44 -15 23 -15 25 0 19 10 -4 15 -3 11 3 -3 6 -1 10 4 10 6 0 11 5 11 12
0 9 -3 9 -12 0 -14 -14 -32 -16 -24 -4 9 15 -31 7 -47 -9 -12 -13 -12 -18 -2
-33 7 -10 16 -13 19 -7 3 5 0 11 -6 14 -7 2 -9 8 -5 13 9 9 28 -16 21 -27 -2
-4 0 -10 6 -14 6 -4 8 -11 5 -16 -4 -5 1 -12 9 -15 9 -3 13 -11 10 -16 -4 -6
-9 -6 -14 2 -5 9 -9 9 -14 1 -4 -6 -3 -11 3 -11 5 0 8 -10 7 -23 -2 -13 2 -24
9 -24 7 0 12 7 11 16 -1 9 6 15 16 15 10 -1 15 2 12 7 -3 5 0 9 6 9 7 0 9 8 5
20 -5 14 -3 18 8 15 7 -3 14 -13 14 -22 0 -20 -66 -79 -84 -75 -7 2 -13 -2
-13 -8 0 -5 5 -10 12 -10 6 0 9 -3 6 -6 -4 -3 -15 -1 -26 5 -15 8 -22 8 -25
-2 -3 -7 -6 -6 -6 5 -1 9 -7 19 -13 21 -7 3 2 4 20 2 34 -4 38 1 22 25 -6 10
-10 11 -10 3 0 -7 -5 -13 -12 -13 -9 0 -9 3 0 12 7 7 12 17 12 22 0 6 -11 -1
-25 -16 -16 -17 -31 -25 -41 -21 -12 4 -13 8 -3 14 7 4 16 6 20 3 4 -2 12 3
19 11 11 13 10 15 -6 12 -11 -2 -27 -7 -36 -11 -10 -5 -23 -6 -30 -3 -7 3 -3
6 10 6 13 1 20 5 17 11 -4 6 -16 8 -28 5 -14 -4 -10 1 11 14 18 12 30 26 27
31 -6 10 8 14 34 10 21 -3 -5 27 -30 35 -10 4 -19 11 -19 17 0 6 3 8 7 5 3 -4
12 -2 20 4 10 9 13 8 13 0 0 -7 4 -10 10 -6 5 3 7 12 3 20 -5 15 12 21 20 8z
m-1837 -42 c-16 -18 -16 -20 11 -40 19 -14 22 -19 8 -14 -18 6 -18 5 -6 -10 7
-10 9 -17 3 -17 -6 0 -12 6 -15 13 -2 6 -7 9 -11 5 -4 -3 2 -25 14 -47 18 -36
19 -42 5 -47 -8 -3 -13 -9 -10 -13 2 -4 -2 -8 -9 -8 -7 0 -19 10 -26 21 -10
17 -10 19 1 9 18 -17 34 -17 20 0 -6 8 -7 18 -3 22 4 5 -1 5 -11 2 -11 -4 -16
-3 -12 4 4 6 13 8 21 5 16 -6 17 -4 8 19 -5 13 -9 14 -15 4 -6 -10 -10 -10
-23 0 -13 11 -15 8 -11 -26 4 -35 4 -36 -8 -15 -7 12 -17 19 -22 15 -4 -4 -6
-3 -2 2 3 6 2 17 -4 25 -6 12 -9 12 -9 2 0 -10 -4 -10 -16 2 -12 12 -13 20 -4
33 10 16 11 16 6 -2 -6 -20 -6 -20 9 -1 11 14 15 16 15 5 0 -12 2 -12 9 1 6 8
7 18 4 24 -3 5 -1 6 5 2 6 -3 13 -2 17 4 4 6 11 8 16 5 5 -4 9 -1 9 5 0 6 5 8
12 4 7 -4 8 -3 4 4 -5 8 -13 9 -25 2 -12 -6 -22 -5 -31 3 -10 9 -11 9 -6 0 3
-6 2 -14 -4 -18 -5 -3 -10 1 -10 9 0 9 -4 16 -8 16 -5 0 -9 -7 -9 -15 0 -8 4
-15 9 -15 5 0 6 -5 3 -10 -9 -15 -27 -1 -21 16 3 7 2 16 -3 18 -7 5 -11 -8
-12 -46 0 -19 -19 -26 -19 -7 0 5 -6 7 -12 3 -7 -4 -5 2 5 13 9 11 17 24 17
29 0 5 -5 1 -11 -8 -5 -10 -18 -18 -27 -18 -12 0 -13 3 -5 8 8 5 9 13 3 22 -7
10 -10 11 -10 3 0 -7 -5 -13 -11 -13 -8 0 -8 5 1 15 9 11 16 12 26 4 8 -6 19
-7 31 -1 10 5 48 8 86 8 37 -1 67 3 67 8 0 5 3 6 7 3 3 -4 -1 -15 -11 -26z
m70 16 c8 3 14 0 14 -7 0 -6 -4 -8 -10 -5 -5 3 -11 1 -11 -4 -3 -26 -4 -30
-11 -36 -3 -3 -15 -1 -26 6 -19 12 -19 14 -5 36 11 16 19 21 26 14 5 -5 16 -7
23 -4z m1809 -15 c-3 -3 -11 0 -18 7 -9 10 -8 11 6 5 10 -3 15 -9 12 -12z
m-1760 -10 c-3 -3 0 -10 5 -17 7 -8 5 -12 -5 -12 -8 0 -13 3 -10 5 3 3 0 10
-5 17 -7 8 -5 12 5 12 8 0 13 -3 10 -5z m1621 -20 c-17 -16 -18 -16 -5 5 7 12
15 20 18 17 3 -2 -3 -12 -13 -22z m30 -4 c-9 -5 -13 -15 -10 -21 4 -7 4 -9 -1
-5 -4 4 -13 0 -20 -9 -9 -13 -14 -13 -20 -3 -5 8 -4 11 1 7 6 -3 18 7 29 23
11 16 23 26 28 23 5 -3 2 -10 -7 -15z m119 2 c-3 -4 1 -10 7 -13 10 -4 10 -7
0 -18 -7 -8 -13 -9 -12 -4 2 6 1 12 0 15 -7 19 -7 39 1 34 5 -3 7 -9 4 -14z
m-1811 -15 c-10 -8 -23 -15 -28 -15 -6 0 -1 7 10 15 10 8 23 15 28 15 6 0 1
-7 -10 -15z m6 -30 c-7 -9 -15 -13 -19 -10 -3 3 1 10 9 15 21 14 24 12 10 -5z
m50 12 c0 -2 -12 -14 -27 -28 l-28 -24 24 28 c23 25 31 32 31 24z m1850 -17
c0 -5 -5 -10 -11 -10 -5 0 -7 5 -4 10 3 6 8 10 11 10 2 0 4 -4 4 -10z m-1810
-4 c0 -2 -8 -10 -17 -17 -16 -13 -17 -12 -4 4 13 16 21 21 21 13z m1760 0 c0
-2 -12 -12 -27 -21 l-28 -18 19 21 c17 20 36 29 36 18z m-1887 -13 c-7 -2 -19
-2 -25 0 -7 3 -2 5 12 5 14 0 19 -2 13 -5z m1672 -21 c-3 -3 -11 0 -18 7 -9
10 -8 11 6 5 10 -3 15 -9 12 -12z m-1611 -11 c-3 -4 -7 -4 -9 -1 -1 3 -13 -4
-26 -15 -13 -11 -18 -13 -11 -4 6 9 10 18 7 20 -2 3 7 5 20 5 13 0 22 -2 19
-5z m1612 -27 c1 -9 0 -13 -4 -10 -3 4 -7 14 -8 22 -1 9 0 13 4 10 3 -4 7 -14
8 -22z m-1576 6 c0 -5 -2 -10 -4 -10 -3 0 -8 5 -11 10 -3 6 -1 10 4 10 6 0 11
-4 11 -10z m1255 -840 c3 -5 1 -10 -4 -10 -6 0 -11 5 -11 10 0 6 2 10 4 10 3
0 8 -4 11 -10z m83 -25 c-3 -3 -9 2 -12 12 -6 14 -5 15 5 6 7 -7 10 -15 7 -18z
m13 -18 c-10 -9 -11 -8 -5 6 3 10 9 15 12 12 3 -3 0 -11 -7 -18z m47 -4 c-2
-10 5 -19 16 -21 13 -3 16 0 11 9 -5 7 -4 10 3 5 6 -4 9 -13 5 -22 -3 -8 -2
-14 3 -13 24 4 36 -2 30 -17 -3 -9 -3 -21 1 -27 12 -19 14 -49 3 -42 -5 3 -10
2 -10 -3 0 -6 7 -13 16 -16 8 -3 12 -11 9 -16 -4 -6 -2 -16 3 -23 5 -7 9 -19
9 -27 1 -8 4 -24 9 -34 6 -15 4 -17 -7 -11 -12 8 -12 6 0 -8 7 -9 10 -17 5
-17 -5 0 -2 -5 6 -11 13 -9 13 -10 0 -5 -8 3 -23 9 -32 12 -10 4 -18 13 -18
21 0 8 4 11 10 8 6 -4 7 1 3 11 -5 13 -3 15 7 9 9 -6 11 -4 5 5 -6 10 -12 7
-25 -10 -14 -18 -20 -20 -37 -11 -24 12 -36 38 -23 46 6 4 10 1 10 -4 0 -6 5
-11 11 -11 5 0 7 5 4 10 -3 6 -1 10 4 10 6 0 11 -4 11 -10 0 -5 5 -10 11 -10
8 0 7 5 -1 15 -7 9 -20 13 -28 10 -10 -4 -12 0 -8 12 4 10 4 14 0 10 -8 -8
-34 11 -34 25 0 6 7 5 15 -2 11 -9 18 -10 29 -1 11 9 15 8 20 -4 3 -9 2 -13
-4 -10 -6 3 -10 1 -10 -4 0 -6 6 -11 14 -11 8 0 16 -3 19 -7 2 -5 2 -1 -1 7
-2 8 -5 21 -5 28 0 6 -4 12 -9 12 -5 0 -1 11 8 25 15 23 15 25 0 19 -9 -3 -14
-10 -11 -14 3 -4 -3 -14 -12 -21 -9 -8 -14 -9 -10 -3 3 6 0 11 -8 11 -8 0 -15
-5 -15 -11 0 -5 -7 -1 -15 10 -15 19 -15 19 -9 -1 4 -15 2 -14 -11 5 -12 18
-14 19 -9 5 3 -11 7 -26 7 -32 0 -7 4 -13 9 -13 5 0 6 -5 2 -11 -4 -8 -9 -7
-15 2 -6 10 -8 8 -6 -8 2 -12 7 -26 12 -30 4 -5 5 -3 1 4 -3 6 -2 14 4 18 5 3
10 3 11 -2 0 -4 2 -16 4 -25 4 -22 5 -23 -35 7 -18 13 -36 23 -39 20 -4 -2
-18 5 -31 15 -24 19 -24 19 -2 13 12 -3 22 -10 22 -16 0 -15 13 1 16 19 2 10
-3 13 -16 9 -22 -7 -33 7 -24 30 6 15 8 15 15 2 11 -19 41 -12 56 13 10 15 9
18 -13 16 -15 0 -22 -6 -19 -13 2 -7 -1 -13 -6 -13 -6 0 -9 9 -6 20 4 15 0 20
-16 21 -18 1 -19 2 -4 6 10 3 25 -1 33 -8 21 -17 30 -3 10 16 -9 9 -16 18 -16
20 0 7 42 -4 55 -15 8 -7 16 -7 19 -2 3 6 -1 12 -9 16 -8 3 -15 13 -14 23 0
16 1 16 9 -2 5 -11 9 -15 10 -10 1 6 3 15 5 20 1 6 3 13 3 18 4 15 13 6 10
-10z m-1161 -20 c0 -9 -4 -10 -14 -2 -7 6 -13 12 -13 14 0 1 6 2 13 2 8 0 14
-6 14 -14z m1020 0 c0 -9 -4 -10 -14 -2 -7 6 -13 12 -13 14 0 1 6 2 13 2 8 0
14 -6 14 -14z m58 -1 c-3 -3 -11 0 -18 7 -9 10 -8 11 6 5 10 -3 15 -9 12 -12z
m-1100 -12 c3 -5 1 -10 -4 -10 -6 0 -11 5 -11 10 0 6 2 10 4 10 3 0 8 -4 11
-10z m-57 -31 c-7 -4 -6 -9 3 -15 7 -4 14 -3 17 4 2 7 8 12 13 12 5 0 4 -9 -3
-20 -11 -17 -14 -18 -29 -4 -10 9 -15 23 -12 35 4 16 8 17 14 8 4 -8 3 -16 -3
-20z m158 16 c-1 -8 -5 -17 -8 -21 -5 -4 -4 16 1 34 3 9 9 -1 7 -13z m-76 -5
c0 -5 -5 -10 -11 -10 -5 0 -7 5 -4 10 3 6 8 10 11 10 2 0 4 -4 4 -10z m-18
-27 c-6 -2 -10 -8 -7 -13 3 -4 -2 -13 -10 -20 -10 -9 -15 -9 -15 -1 0 6 5 11
10 11 6 0 9 3 9 8 -3 15 1 22 14 21 9 0 9 -2 -1 -6z m-42 -51 c0 -7 5 -10 10
-7 6 3 10 2 10 -3 0 -5 6 -9 13 -10 26 -1 57 -11 84 -27 25 -14 25 -15 4 -9
-19 5 -23 3 -18 -9 4 -10 0 -14 -11 -13 -9 2 -25 -5 -36 -15 -10 -10 -22 -16
-26 -14 -5 3 -11 -2 -14 -11 -9 -24 -48 -13 -53 15 -3 19 -1 21 10 12 8 -6 17
-8 20 -4 4 3 7 1 7 -5 0 -5 -6 -13 -12 -15 -8 -3 -8 -6 -2 -6 6 -1 19 8 29 19
17 18 17 20 2 14 -9 -3 -17 -2 -17 3 0 5 9 9 20 10 11 1 20 -3 20 -8 0 -6 7
-3 16 5 8 9 19 14 24 11 4 -3 11 2 14 11 4 12 2 15 -9 11 -8 -4 -17 -2 -20 3
-4 6 -11 10 -17 10 -7 0 -6 -6 2 -15 7 -8 11 -15 9 -16 -2 0 -15 -2 -28 -3
-21 -3 -22 -2 -7 10 10 7 13 15 7 18 -5 4 -12 2 -16 -4 -4 -6 -11 -7 -17 -4
-6 4 -8 2 -5 -4 9 -14 -3 -43 -15 -36 -5 3 -4 11 3 20 6 8 9 15 5 15 -3 1 -10
3 -16 4 -5 1 -18 3 -27 4 -16 2 -15 3 2 11 11 5 14 9 6 9 -8 1 -4 9 10 22 l24
20 -25 -6 c-17 -4 -21 -3 -11 3 8 6 10 15 6 23 -5 7 4 4 18 -7 15 -10 27 -25
27 -32z m90 39 c0 -5 -9 -13 -20 -16 -11 -4 -18 -11 -14 -16 3 -5 9 -7 14 -4
5 3 21 -2 35 -11 23 -15 25 -15 25 2 0 9 3 15 6 11 4 -3 4 -13 0 -22 -5 -14
-9 -14 -33 -2 -16 8 -34 12 -40 10 -7 -3 -13 0 -13 7 0 6 -6 8 -12 5 -7 -4 1
5 17 19 34 29 35 30 35 17z m998 -11 c-7 -11 -16 -20 -20 -20 -5 0 -3 9 4 20
7 11 16 20 20 20 5 0 3 -9 -4 -20z m-968 -10 c0 -5 -4 -10 -10 -10 -5 0 -10 5
-10 10 0 6 5 10 10 10 6 0 10 -4 10 -10z m1098 -85 c-3 -3 -9 2 -12 12 -6 14
-5 15 5 6 7 -7 10 -15 7 -18z m-1260 -12 c-12 -13 -16 -23 -9 -23 7 0 9 -5 6
-10 -4 -6 -11 -8 -16 -5 -5 4 -9 1 -9 -5 0 -7 6 -10 14 -7 8 3 20 -2 28 -10
11 -15 11 -16 -4 -10 -10 3 -18 2 -18 -3 0 -16 -38 -32 -46 -18 -4 7 -3 8 4 4
8 -5 12 4 12 28 0 19 4 37 9 40 5 3 7 14 4 24 -3 14 2 18 21 18 l26 0 -22 -23z"/>
<path d="M2990 4260 c0 -5 5 -10 11 -10 5 0 7 5 4 10 -3 6 -8 10 -11 10 -2 0
-4 -4 -4 -10z"/>
<path d="M2965 4230 c8 -25 -3 -26 -22 -2 -13 15 -13 15 -3 -5 8 -18 7 -24
-11 -33 -14 -8 -17 -15 -10 -24 7 -8 4 -15 -10 -24 -10 -7 -19 -18 -18 -25 0
-9 2 -9 6 1 4 10 10 10 28 -2 16 -10 26 -12 30 -5 5 7 11 6 21 -2 15 -13 20
-34 5 -25 -5 4 -8 -2 -6 -11 2 -10 4 -21 4 -25 2 -14 32 -8 37 7 4 8 10 12 16
9 13 -8 47 24 44 41 -1 8 -10 23 -21 35 -10 11 -15 20 -10 20 4 0 2 7 -5 15
-7 9 -21 13 -31 10 -14 -5 -17 -2 -13 8 2 7 -2 20 -10 27 -9 7 -13 16 -10 21
3 5 0 9 -6 9 -7 0 -9 -8 -5 -20z m25 -28 c0 -5 -10 -14 -23 -19 -13 -6 -24
-18 -24 -27 0 -8 4 -13 9 -10 5 3 6 10 3 15 -4 5 -2 9 3 9 6 0 13 -7 16 -16 4
-9 9 -14 13 -11 3 4 13 1 22 -6 14 -11 14 -10 2 5 -7 10 -17 16 -21 13 -4 -3
-10 1 -13 8 -3 8 5 12 24 12 16 0 28 -3 27 -6 -2 -4 6 -17 16 -28 25 -27 27
-43 10 -58 -10 -10 -14 -9 -19 7 -4 11 -11 18 -16 14 -5 -3 -7 -9 -4 -13 2 -5
-2 -17 -10 -27 -8 -10 -15 -14 -15 -7 0 6 5 15 11 18 7 5 4 14 -7 26 -9 10
-13 19 -8 19 11 0 -18 20 -29 20 -5 0 -6 -4 -2 -9 9 -16 -9 -20 -28 -6 -16 11
-16 13 -1 19 14 5 14 9 3 24 -7 9 -10 14 -5 10 4 -3 16 2 27 13 20 20 39 25
39 11z"/>
<path d="M3010 4161 c0 -6 5 -13 10 -16 6 -4 8 -11 4 -16 -4 -6 -11 -6 -19 1
-13 11 -13 8 -6 -29 1 -2 7 2 15 8 11 10 16 9 24 -5 8 -14 10 -14 15 -1 3 8
-3 23 -13 32 -11 10 -17 22 -14 26 3 5 0 9 -5 9 -6 0 -11 -4 -11 -9z"/>
<path d="M3001 4223 c7 -12 15 -20 18 -17 3 2 -3 12 -13 22 -17 16 -18 16 -5
-5z"/>
<path d="M3872 3525 c12 -13 -12 -34 -30 -28 -9 3 -15 4 -12 2 29 -25 52 -41
43 -29 -10 11 -10 17 3 31 12 14 13 18 2 25 -7 4 -10 4 -6 -1z"/>
<path d="M4015 3501 c-3 -5 0 -13 6 -17 7 -4 9 -3 5 4 -3 5 0 13 6 15 9 4 10
6 1 6 -6 1 -14 -3 -18 -8z"/>
<path d="M3834 3428 c-3 -10 -10 -18 -15 -18 -6 0 -8 -4 -5 -9 7 -10 25 -9 44
2 7 5 12 3 12 -3 0 -6 4 -9 10 -5 5 3 16 -7 24 -22 8 -15 15 -23 15 -18 1 6
-3 17 -9 25 -5 8 -5 19 -1 25 18 24 6 40 -31 40 -28 1 -39 -4 -44 -17z m71 -7
c-1 -9 -9 -14 -16 -12 -8 2 -22 3 -32 3 -9 0 -15 4 -11 9 3 5 15 7 26 3 12 -3
18 -2 15 3 -4 5 0 10 7 10 8 0 13 -7 11 -16z"/>
<path d="M1973 3443 c-8 -13 -19 -21 -23 -18 -5 3 -12 1 -15 -5 -4 -6 -2 -9 4
-8 5 2 17 -6 26 -17 9 -11 14 -14 10 -7 -10 19 4 35 21 21 11 -9 16 -6 25 15
7 14 17 22 23 19 6 -4 5 0 -2 9 -18 23 -51 18 -69 -9z m42 -2 c-1 -9 -8 -16
-16 -16 -8 0 -20 -4 -28 -9 -9 -6 -8 -1 3 16 18 28 45 33 41 9z"/>
<path d="M1990 3440 c0 -5 5 -10 11 -10 5 0 7 5 4 10 -3 6 -8 10 -11 10 -2 0
-4 -4 -4 -10z"/>
<path d="M2036 3362 c-3 -6 -1 -14 5 -17 14 -9 20 -2 10 14 -6 8 -11 9 -15 3z"/>
<path d="M2084 3502 c3 -5 1 -12 -6 -14 -12 -4 -3 -28 10 -28 12 0 12 39 0 46
-6 4 -8 2 -4 -4z"/>
<path d="M3584 2414 c10 -26 -13 -35 -43 -16 l-26 16 24 -27 c14 -15 20 -27
15 -27 -5 0 0 -6 11 -12 21 -13 64 -19 63 -9 -2 21 4 31 15 25 10 -6 10 -4 0
7 -7 7 -13 17 -13 22 0 4 6 5 13 1 7 -4 9 -3 4 2 -5 5 -12 9 -15 9 -4 1 -18 7
-31 14 -22 12 -23 12 -17 -5z m35 -55 c-11 -22 -21 -26 -13 -6 3 8 -2 14 -11
14 -10 0 -14 -6 -10 -16 5 -13 4 -13 -6 -4 -18 18 18 58 37 42 10 -8 11 -16 3
-30z"/>
<path d="M3596 2382 c-3 -5 1 -9 9 -9 8 0 12 4 9 9 -3 4 -7 8 -9 8 -2 0 -6 -4
-9 -8z"/>
<path d="M3470 2320 c0 -5 5 -10 11 -10 5 0 7 5 4 10 -3 6 -8 10 -11 10 -2 0
-4 -4 -4 -10z"/>
<path d="M3525 2322 c-15 -11 -14 -50 2 -56 8 -3 11 -1 8 5 -4 5 -2 15 4 22
12 15 0 39 -14 29z"/>
<path d="M2344 2319 c-16 -25 -12 -36 12 -35 13 1 26 5 29 9 3 4 2 5 -2 2 -4
-3 -12 4 -19 16 -9 17 -13 19 -20 8z"/>
<path d="M1690 3940 c0 -5 5 -10 11 -10 5 0 7 5 4 10 -3 6 -8 10 -11 10 -2 0
-4 -4 -4 -10z"/>
</g>
</svg>
